<svg xmlns="http://www.w3.org/2000/svg" height="172" width="960.0" font-size="16" font-family="sans-serif" stroke-width="2">
<g transform="translate(10.0 0)">
<g fill="hsl(0, 100%, 40%)">
<text y="22">generateModule.15.0</text>
<text y="22" x="473.7527913658729" text-anchor="end">10.9 ms</text>
</g>
<g>
<title>10.9 ms ± 434 μs</title>
<rect y="28" rx="5" height="22" width="473.7527913658729" fill="hsl(0, 100%, 80%)" stroke="hsl(0, 100%, 55%)" />
<g stroke="hsl(0, 100%, 40%)"><line x1="454.8483750830546" x2="492.6572076486912" y1="39" y2="39" />
<line x1="454.8483750830546" x2="454.8483750830546" y1="33" y2="45" />
<line x1="492.6572076486912" x2="492.6572076486912" y1="33" y2="45" />
</g>
</g>
<g fill="hsl(120, 100%, 40%)">
<text y="77">generateModule.15.1</text>
<text y="77" x="769.8042478730493" text-anchor="end">17.7 ms</text>
</g>
<g>
<title>17.7 ms ± 632 μs</title>
<rect y="83" rx="5" height="22" width="769.8042478730493" fill="hsl(120, 100%, 80%)" stroke="hsl(120, 100%, 55%)" />
<g stroke="hsl(120, 100%, 40%)"><line x1="742.2495145510837" x2="797.358981195015" y1="94" y2="94" />
<line x1="742.2495145510837" x2="742.2495145510837" y1="88" y2="100" />
<line x1="797.358981195015" x2="797.358981195015" y1="88" y2="100" />
</g>
</g>
<g fill="hsl(240, 100%, 40%)">
<text y="132">generateModule.16.0</text>
<text y="132" x="883.6430674680785" text-anchor="end">20.3 ms</text>
</g>
<g>
<title>20.3 ms ± 1.3 ms</title>
<rect y="138" rx="5" height="22" width="883.6430674680785" fill="hsl(240, 100%, 80%)" stroke="hsl(240, 100%, 55%)" />
<g stroke="hsl(240, 100%, 40%)"><line x1="827.2861349361569" x2="940.0" y1="149" y2="149" />
<line x1="827.2861349361569" x2="827.2861349361569" y1="143" y2="155" />
<line x1="940.0" x2="940.0" y1="143" y2="155" />
</g>
</g>
</g>
</svg>
