<svg xmlns="http://www.w3.org/2000/svg" height="172" width="960.0" font-size="16" font-family="sans-serif" stroke-width="2">
<g transform="translate(10.0 0)">
<g fill="hsl(0, 100%, 40%)">
<text y="22">generateModule.15.0</text>
<text y="22" x="439.0336633718107" text-anchor="end">3.36 ms</text>
</g>
<g>
<title>3.36 ms ± 214 μs</title>
<rect y="28" rx="5" height="22" width="439.0336633718107" fill="hsl(0, 100%, 80%)" stroke="hsl(0, 100%, 55%)" />
<g stroke="hsl(0, 100%, 40%)"><line x1="411.10939463708195" x2="466.95793210653943" y1="39" y2="39" />
<line x1="411.10939463708195" x2="411.10939463708195" y1="33" y2="45" />
<line x1="466.95793210653943" x2="466.95793210653943" y1="33" y2="45" />
</g>
</g>
<g fill="hsl(120, 100%, 40%)">
<text y="77">generateModule.15.1</text>
<text y="77" x="793.747899046013" text-anchor="end">6.07 ms</text>
</g>
<g>
<title>6.07 ms ± 336 μs</title>
<rect y="83" rx="5" height="22" width="793.747899046013" fill="hsl(120, 100%, 80%)" stroke="hsl(120, 100%, 55%)" />
<g stroke="hsl(120, 100%, 40%)"><line x1="749.8172718457406" x2="837.6785262462854" y1="94" y2="94" />
<line x1="749.8172718457406" x2="749.8172718457406" y1="88" y2="100" />
<line x1="837.6785262462854" x2="837.6785262462854" y1="88" y2="100" />
</g>
</g>
<g fill="hsl(240, 100%, 40%)">
<text y="132">generateModule.16.0</text>
<text y="132" x="879.280831062671" text-anchor="end">6.73 ms</text>
</g>
<g>
<title>6.73 ms ± 465 μs</title>
<rect y="138" rx="5" height="22" width="879.280831062671" fill="hsl(240, 100%, 80%)" stroke="hsl(240, 100%, 55%)" />
<g stroke="hsl(240, 100%, 40%)"><line x1="818.5616621253421" x2="940.0" y1="149" y2="149" />
<line x1="818.5616621253421" x2="818.5616621253421" y1="143" y2="155" />
<line x1="940.0" x2="940.0" y1="143" y2="155" />
</g>
</g>
</g>
</svg>
