<svg xmlns="http://www.w3.org/2000/svg" height="172" width="960.0" font-size="16" font-family="sans-serif" stroke-width="2">
<g transform="translate(10.0 0)">
<g fill="hsl(0, 100%, 40%)">
<text y="22">generateModule.15.0</text>
<text y="22" x="494.7811268222741" text-anchor="end">11.0 ms</text>
</g>
<g>
<title>11.0 ms ± 734 μs</title>
<rect y="28" rx="5" height="22" width="494.7811268222741" fill="hsl(0, 100%, 80%)" stroke="hsl(0, 100%, 55%)" />
<g stroke="hsl(0, 100%, 40%)"><line x1="461.8694218761288" x2="527.6928317684194" y1="39" y2="39" />
<line x1="461.8694218761288" x2="461.8694218761288" y1="33" y2="45" />
<line x1="527.6928317684194" x2="527.6928317684194" y1="33" y2="45" />
</g>
</g>
<g fill="hsl(120, 100%, 40%)">
<text y="77">generateModule.15.1</text>
<text y="77" x="785.9451233546655" text-anchor="end">17.5 ms</text>
</g>
<g>
<title>17.5 ms ± 1.5 ms</title>
<rect y="83" rx="5" height="22" width="785.9451233546655" fill="hsl(120, 100%, 80%)" stroke="hsl(120, 100%, 55%)" />
<g stroke="hsl(120, 100%, 40%)"><line x1="720.1089836249026" x2="851.7812630844284" y1="94" y2="94" />
<line x1="720.1089836249026" x2="720.1089836249026" y1="88" y2="100" />
<line x1="851.7812630844284" x2="851.7812630844284" y1="88" y2="100" />
</g>
</g>
<g fill="hsl(240, 100%, 40%)">
<text y="132">generateModule.16.0</text>
<text y="132" x="895.5198239908308" text-anchor="end">20.0 ms</text>
</g>
<g>
<title>20.0 ms ± 992 μs</title>
<rect y="138" rx="5" height="22" width="895.5198239908308" fill="hsl(240, 100%, 80%)" stroke="hsl(240, 100%, 55%)" />
<g stroke="hsl(240, 100%, 40%)"><line x1="851.0396479816616" x2="940.0" y1="149" y2="149" />
<line x1="851.0396479816616" x2="851.0396479816616" y1="143" y2="155" />
<line x1="940.0" x2="940.0" y1="143" y2="155" />
</g>
</g>
</g>
</svg>
