<svg xmlns="http://www.w3.org/2000/svg" height="172" width="960.0" font-size="16" font-family="sans-serif" stroke-width="2">
<g transform="translate(10.0 0)">
<g fill="hsl(0, 100%, 40%)">
<text y="22">generateModule.15.0</text>
<text y="22" x="453.49069971377105" text-anchor="end">3.59 ms</text>
</g>
<g>
<title>3.59 ms ± 196 μs</title>
<rect y="28" rx="5" height="22" width="453.49069971377105" fill="hsl(0, 100%, 80%)" stroke="hsl(0, 100%, 55%)" />
<g stroke="hsl(0, 100%, 40%)"><line x1="428.7711915975956" x2="478.2102078299465" y1="39" y2="39" />
<line x1="428.7711915975956" x2="428.7711915975956" y1="33" y2="45" />
<line x1="478.2102078299465" x2="478.2102078299465" y1="33" y2="45" />
</g>
</g>
<g fill="hsl(120, 100%, 40%)">
<text y="77">generateModule.15.1</text>
<text y="77" x="802.5176365302768" text-anchor="end">6.36 ms</text>
</g>
<g>
<title>6.36 ms ± 183 μs</title>
<rect y="83" rx="5" height="22" width="802.5176365302768" fill="hsl(120, 100%, 80%)" stroke="hsl(120, 100%, 55%)" />
<g stroke="hsl(120, 100%, 40%)"><line x1="779.3921585518335" x2="825.6431145087201" y1="94" y2="94" />
<line x1="779.3921585518335" x2="779.3921585518335" y1="88" y2="100" />
<line x1="825.6431145087201" x2="825.6431145087201" y1="88" y2="100" />
</g>
</g>
<g fill="hsl(240, 100%, 40%)">
<text y="132">generateModule.16.0</text>
<text y="132" x="897.0433647986462" text-anchor="end">7.11 ms</text>
</g>
<g>
<title>7.11 ms ± 340 μs</title>
<rect y="138" rx="5" height="22" width="897.0433647986462" fill="hsl(240, 100%, 80%)" stroke="hsl(240, 100%, 55%)" />
<g stroke="hsl(240, 100%, 40%)"><line x1="854.0867295972923" x2="940.0" y1="149" y2="149" />
<line x1="854.0867295972923" x2="854.0867295972923" y1="143" y2="155" />
<line x1="940.0" x2="940.0" y1="143" y2="155" />
</g>
</g>
</g>
</svg>
