<svg xmlns="http://www.w3.org/2000/svg" height="172" width="960.0" font-size="16" font-family="sans-serif" stroke-width="2">
<g transform="translate(10.0 0)">
<g fill="hsl(0, 100%, 40%)">
<text y="22">generateModule.15.0</text>
<text y="22" x="290.82273570102" text-anchor="end">30.3 ms</text>
</g>
<g>
<title>30.3 ms ± 210 μs</title>
<rect y="28" rx="5" height="22" width="290.82273570102" fill="hsl(0, 100%, 80%)" stroke="hsl(0, 100%, 55%)" />
<g stroke="hsl(0, 100%, 40%)"><line x1="288.80549297936585" x2="292.83997842267416" y1="39" y2="39" />
<line x1="288.80549297936585" x2="288.80549297936585" y1="33" y2="45" />
<line x1="292.83997842267416" x2="292.83997842267416" y1="33" y2="45" />
</g>
</g>
<g fill="hsl(120, 100%, 40%)">
<text y="77">generateModule.15.1</text>
<text y="77" x="859.0695951569417" text-anchor="end">89.5 ms</text>
</g>
<g>
<title>89.5 ms ± 3.3 ms</title>
<rect y="83" rx="5" height="22" width="859.0695951569417" fill="hsl(120, 100%, 80%)" stroke="hsl(120, 100%, 55%)" />
<g stroke="hsl(120, 100%, 40%)"><line x1="827.1541292726083" x2="890.985061041275" y1="94" y2="94" />
<line x1="827.1541292726083" x2="827.1541292726083" y1="88" y2="100" />
<line x1="890.985061041275" x2="890.985061041275" y1="88" y2="100" />
</g>
</g>
<g fill="hsl(240, 100%, 40%)">
<text y="132">generateModule.16.0</text>
<text y="132" x="867.1925710536584" text-anchor="end">90.4 ms</text>
</g>
<g>
<title>90.4 ms ± 7.6 ms</title>
<rect y="138" rx="5" height="22" width="867.1925710536584" fill="hsl(240, 100%, 80%)" stroke="hsl(240, 100%, 55%)" />
<g stroke="hsl(240, 100%, 40%)"><line x1="794.3851421073168" x2="940.0" y1="149" y2="149" />
<line x1="794.3851421073168" x2="794.3851421073168" y1="143" y2="155" />
<line x1="940.0" x2="940.0" y1="143" y2="155" />
</g>
</g>
</g>
</svg>
