<svg xmlns="http://www.w3.org/2000/svg" height="172" width="960.0" font-size="16" font-family="sans-serif" stroke-width="2">
<g transform="translate(10.0 0)">
<g fill="hsl(0, 100%, 40%)">
<text y="22">generateModule.15.0</text>
<text y="22" x="390.65348069780265" text-anchor="end">2.65 ms</text>
</g>
<g>
<title>2.65 ms ± 146 μs</title>
<rect y="28" rx="5" height="22" width="390.65348069780265" fill="hsl(0, 100%, 80%)" stroke="hsl(0, 100%, 55%)" />
<g stroke="hsl(0, 100%, 40%)"><line x1="369.1749373415986" x2="412.1320240540067" y1="39" y2="39" />
<line x1="369.1749373415986" x2="369.1749373415986" y1="33" y2="45" />
<line x1="412.1320240540067" x2="412.1320240540067" y1="33" y2="45" />
</g>
</g>
<g fill="hsl(120, 100%, 40%)">
<text y="77">generateModule.15.1</text>
<text y="77" x="813.2276130300967" text-anchor="end">5.52 ms</text>
</g>
<g>
<title>5.52 ms ± 459 μs</title>
<rect y="83" rx="5" height="22" width="813.2276130300967" fill="hsl(120, 100%, 80%)" stroke="hsl(120, 100%, 55%)" />
<g stroke="hsl(120, 100%, 40%)"><line x1="745.6132329922264" x2="880.841993067967" y1="94" y2="94" />
<line x1="745.6132329922264" x2="745.6132329922264" y1="88" y2="100" />
<line x1="880.841993067967" x2="880.841993067967" y1="88" y2="100" />
</g>
</g>
<g fill="hsl(240, 100%, 40%)">
<text y="132">generateModule.16.0</text>
<text y="132" x="864.9126618885032" text-anchor="end">5.87 ms</text>
</g>
<g>
<title>5.87 ms ± 509 μs</title>
<rect y="138" rx="5" height="22" width="864.9126618885032" fill="hsl(240, 100%, 80%)" stroke="hsl(240, 100%, 55%)" />
<g stroke="hsl(240, 100%, 40%)"><line x1="789.8253237770064" x2="940.0" y1="149" y2="149" />
<line x1="789.8253237770064" x2="789.8253237770064" y1="143" y2="155" />
<line x1="940.0" x2="940.0" y1="143" y2="155" />
</g>
</g>
</g>
</svg>
