<svg xmlns="http://www.w3.org/2000/svg" height="172" width="960.0" font-size="16" font-family="sans-serif" stroke-width="2">
<g transform="translate(10.0 0)">
<g fill="hsl(0, 100%, 40%)">
<text y="22">generateModule.15.0</text>
<text y="22" x="893.2979577089043" text-anchor="end">4.115 s</text>
</g>
<g>
<title>4.115 s ± 201 ms</title>
<rect y="28" rx="5" height="22" width="893.2979577089043" fill="hsl(0, 100%, 80%)" stroke="hsl(0, 100%, 55%)" />
<g stroke="hsl(0, 100%, 40%)"><line x1="849.6265104488259" x2="936.9694049689826" y1="39" y2="39" />
<line x1="849.6265104488259" x2="849.6265104488259" y1="33" y2="45" />
<line x1="936.9694049689826" x2="936.9694049689826" y1="33" y2="45" />
</g>
</g>
<g fill="hsl(120, 100%, 40%)">
<text y="77">generateModule.15.1</text>
<text y="77" x="873.3356031184496" text-anchor="end">4.024 s</text>
</g>
<g>
<title>4.024 s ±  94 ms</title>
<rect y="83" rx="5" height="22" width="873.3356031184496" fill="hsl(120, 100%, 80%)" stroke="hsl(120, 100%, 55%)" />
<g stroke="hsl(120, 100%, 40%)"><line x1="852.876293394488" x2="893.7949128424112" y1="94" y2="94" />
<line x1="852.876293394488" x2="852.876293394488" y1="88" y2="100" />
<line x1="893.7949128424112" x2="893.7949128424112" y1="88" y2="100" />
</g>
</g>
<g fill="hsl(240, 100%, 40%)">
<text y="132">generateModule.16.0</text>
<text y="132" x="865.9575471605361" text-anchor="end">3.990 s</text>
</g>
<g>
<title>3.990 s ± 341 ms</title>
<rect y="138" rx="5" height="22" width="865.9575471605361" fill="hsl(240, 100%, 80%)" stroke="hsl(240, 100%, 55%)" />
<g stroke="hsl(240, 100%, 40%)"><line x1="791.9150943210723" x2="940.0" y1="149" y2="149" />
<line x1="791.9150943210723" x2="791.9150943210723" y1="143" y2="155" />
<line x1="940.0" x2="940.0" y1="143" y2="155" />
</g>
</g>
</g>
</svg>
