<svg xmlns="http://www.w3.org/2000/svg" height="172" width="960.0" font-size="16" font-family="sans-serif" stroke-width="2">
<g transform="translate(10.0 0)">
<g fill="hsl(0, 100%, 40%)">
<text y="22">generateModule.15.0</text>
<text y="22" x="420.6542866161564" text-anchor="end">3.47 ms</text>
</g>
<g>
<title>3.47 ms ± 249 μs</title>
<rect y="28" rx="5" height="22" width="420.6542866161564" fill="hsl(0, 100%, 80%)" stroke="hsl(0, 100%, 55%)" />
<g stroke="hsl(0, 100%, 40%)"><line x1="390.4072221814961" x2="450.90135105081674" y1="39" y2="39" />
<line x1="390.4072221814961" x2="390.4072221814961" y1="33" y2="45" />
<line x1="450.90135105081674" x2="450.90135105081674" y1="33" y2="45" />
</g>
</g>
<g fill="hsl(120, 100%, 40%)">
<text y="77">generateModule.15.1</text>
<text y="77" x="765.0937053061723" text-anchor="end">6.31 ms</text>
</g>
<g>
<title>6.31 ms ± 438 μs</title>
<rect y="83" rx="5" height="22" width="765.0937053061723" fill="hsl(120, 100%, 80%)" stroke="hsl(120, 100%, 55%)" />
<g stroke="hsl(120, 100%, 40%)"><line x1="711.9895688022125" x2="818.1978418101321" y1="94" y2="94" />
<line x1="711.9895688022125" x2="711.9895688022125" y1="88" y2="100" />
<line x1="818.1978418101321" x2="818.1978418101321" y1="88" y2="100" />
</g>
</g>
<g fill="hsl(240, 100%, 40%)">
<text y="132">generateModule.16.0</text>
<text y="132" x="879.1778651013817" text-anchor="end">7.25 ms</text>
</g>
<g>
<title>7.25 ms ± 501 μs</title>
<rect y="138" rx="5" height="22" width="879.1778651013817" fill="hsl(240, 100%, 80%)" stroke="hsl(240, 100%, 55%)" />
<g stroke="hsl(240, 100%, 40%)"><line x1="818.3557302027634" x2="940.0" y1="149" y2="149" />
<line x1="818.3557302027634" x2="818.3557302027634" y1="143" y2="155" />
<line x1="940.0" x2="940.0" y1="143" y2="155" />
</g>
</g>
</g>
</svg>
