<svg xmlns="http://www.w3.org/2000/svg" height="172" width="960.0" font-size="16" font-family="sans-serif" stroke-width="2">
<g transform="translate(10.0 0)">
<g fill="hsl(0, 100%, 40%)">
<text y="22">generateModule.15.0</text>
<text y="22" x="397.33283024441545" text-anchor="end">2.50 ms</text>
</g>
<g>
<title>2.50 ms ± 232 μs</title>
<rect y="28" rx="5" height="22" width="397.33283024441545" fill="hsl(0, 100%, 80%)" stroke="hsl(0, 100%, 55%)" />
<g stroke="hsl(0, 100%, 40%)"><line x1="360.54813155537795" x2="434.11752893345295" y1="39" y2="39" />
<line x1="360.54813155537795" x2="360.54813155537795" y1="33" y2="45" />
<line x1="434.11752893345295" x2="434.11752893345295" y1="33" y2="45" />
</g>
</g>
<g fill="hsl(120, 100%, 40%)">
<text y="77">generateModule.15.1</text>
<text y="77" x="849.9408987959032" text-anchor="end">5.35 ms</text>
</g>
<g>
<title>5.35 ms ± 476 μs</title>
<rect y="83" rx="5" height="22" width="849.9408987959032" fill="hsl(120, 100%, 80%)" stroke="hsl(120, 100%, 55%)" />
<g stroke="hsl(120, 100%, 40%)"><line x1="774.3032105113631" x2="925.5785870804433" y1="94" y2="94" />
<line x1="774.3032105113631" x2="774.3032105113631" y1="88" y2="100" />
<line x1="925.5785870804433" x2="925.5785870804433" y1="88" y2="100" />
</g>
</g>
<g fill="hsl(240, 100%, 40%)">
<text y="132">generateModule.16.0</text>
<text y="132" x="868.5664469625673" text-anchor="end">5.47 ms</text>
</g>
<g>
<title>5.47 ms ± 450 μs</title>
<rect y="138" rx="5" height="22" width="868.5664469625673" fill="hsl(240, 100%, 80%)" stroke="hsl(240, 100%, 55%)" />
<g stroke="hsl(240, 100%, 40%)"><line x1="797.1328939251346" x2="940.0" y1="149" y2="149" />
<line x1="797.1328939251346" x2="797.1328939251346" y1="143" y2="155" />
<line x1="940.0" x2="940.0" y1="143" y2="155" />
</g>
</g>
</g>
</svg>
