<svg xmlns="http://www.w3.org/2000/svg" height="172" width="960.0" font-size="16" font-family="sans-serif" stroke-width="2">
<g transform="translate(10.0 0)">
<g fill="hsl(0, 100%, 40%)">
<text y="22">generateModule.15.0</text>
<text y="22" x="796.1004277111412" text-anchor="end">32.6 ms</text>
</g>
<g>
<title>32.6 ms ± 2.7 ms</title>
<rect y="28" rx="5" height="22" width="796.1004277111412" fill="hsl(0, 100%, 80%)" stroke="hsl(0, 100%, 55%)" />
<g stroke="hsl(0, 100%, 40%)"><line x1="730.3863544040073" x2="861.814501018275" y1="39" y2="39" />
<line x1="730.3863544040073" x2="730.3863544040073" y1="33" y2="45" />
<line x1="861.814501018275" x2="861.814501018275" y1="33" y2="45" />
</g>
</g>
<g fill="hsl(120, 100%, 40%)">
<text y="77">generateModule.15.1</text>
<text y="77" x="905.2852160704952" text-anchor="end">37.0 ms</text>
</g>
<g>
<title>37.0 ms ± 1.2 ms</title>
<rect y="83" rx="5" height="22" width="905.2852160704952" fill="hsl(120, 100%, 80%)" stroke="hsl(120, 100%, 55%)" />
<g stroke="hsl(120, 100%, 40%)"><line x1="875.2910179308308" x2="935.2794142101595" y1="94" y2="94" />
<line x1="875.2910179308308" x2="875.2910179308308" y1="88" y2="100" />
<line x1="935.2794142101595" x2="935.2794142101595" y1="88" y2="100" />
</g>
</g>
<g fill="hsl(240, 100%, 40%)">
<text y="132">generateModule.16.0</text>
<text y="132" x="876.3661756511526" text-anchor="end">35.8 ms</text>
</g>
<g>
<title>35.8 ms ± 2.6 ms</title>
<rect y="138" rx="5" height="22" width="876.3661756511526" fill="hsl(240, 100%, 80%)" stroke="hsl(240, 100%, 55%)" />
<g stroke="hsl(240, 100%, 40%)"><line x1="812.7323513023052" x2="940.0" y1="149" y2="149" />
<line x1="812.7323513023052" x2="812.7323513023052" y1="143" y2="155" />
<line x1="940.0" x2="940.0" y1="143" y2="155" />
</g>
</g>
</g>
</svg>
