<svg xmlns="http://www.w3.org/2000/svg" height="172" width="960.0" font-size="16" font-family="sans-serif" stroke-width="2">
<g transform="translate(10.0 0)">
<g fill="hsl(0, 100%, 40%)">
<text y="22">generateModule.15.0</text>
<text y="22" x="901.6743332854874" text-anchor="end">4.193 s</text>
</g>
<g>
<title>4.193 s ±  26 ms</title>
<rect y="28" rx="5" height="22" width="901.6743332854874" fill="hsl(0, 100%, 80%)" stroke="hsl(0, 100%, 55%)" />
<g stroke="hsl(0, 100%, 40%)"><line x1="896.0114456425405" x2="907.3372209284342" y1="39" y2="39" />
<line x1="896.0114456425405" x2="896.0114456425405" y1="33" y2="45" />
<line x1="907.3372209284342" x2="907.3372209284342" y1="33" y2="45" />
</g>
</g>
<g fill="hsl(120, 100%, 40%)">
<text y="77">generateModule.15.1</text>
<text y="77" x="871.5594267851193" text-anchor="end">4.053 s</text>
</g>
<g>
<title>4.053 s ± 318 ms</title>
<rect y="83" rx="5" height="22" width="871.5594267851193" fill="hsl(120, 100%, 80%)" stroke="hsl(120, 100%, 55%)" />
<g stroke="hsl(120, 100%, 40%)"><line x1="803.1188535702386" x2="940.0" y1="94" y2="94" />
<line x1="803.1188535702386" x2="803.1188535702386" y1="88" y2="100" />
<line x1="940.0" x2="940.0" y1="88" y2="100" />
</g>
</g>
<g fill="hsl(240, 100%, 40%)">
<text y="132">generateModule.16.0</text>
<text y="132" x="828.3177485421629" text-anchor="end">3.852 s</text>
</g>
<g>
<title>3.852 s ± 209 ms</title>
<rect y="138" rx="5" height="22" width="828.3177485421629" fill="hsl(240, 100%, 80%)" stroke="hsl(240, 100%, 55%)" />
<g stroke="hsl(240, 100%, 40%)"><line x1="783.2698093435775" x2="873.3656877407483" y1="149" y2="149" />
<line x1="783.2698093435775" x2="783.2698093435775" y1="143" y2="155" />
<line x1="873.3656877407483" x2="873.3656877407483" y1="143" y2="155" />
</g>
</g>
</g>
</svg>
