<svg xmlns="http://www.w3.org/2000/svg" height="172" width="960.0" font-size="16" font-family="sans-serif" stroke-width="2">
<g transform="translate(10.0 0)">
<g fill="hsl(0, 100%, 40%)">
<text y="22">generateModule.15.0</text>
<text y="22" x="660.2419552832091" text-anchor="end">6.826 s</text>
</g>
<g>
<title>6.826 s ± 2.89 s</title>
<rect y="28" rx="5" height="22" width="660.2419552832091" fill="hsl(0, 100%, 80%)" stroke="hsl(0, 100%, 55%)" />
<g stroke="hsl(0, 100%, 40%)"><line x1="380.4839105664182" x2="940.0" y1="39" y2="39" />
<line x1="380.4839105664182" x2="380.4839105664182" y1="33" y2="45" />
<line x1="940.0" x2="940.0" y1="33" y2="45" />
</g>
</g>
<g fill="hsl(120, 100%, 40%)">
<text y="77">generateModule.15.1</text>
<text y="77" x="586.6639102910208" text-anchor="end">6.065 s</text>
</g>
<g>
<title>6.065 s ± 312 ms</title>
<rect y="83" rx="5" height="22" width="586.6639102910208" fill="hsl(120, 100%, 80%)" stroke="hsl(120, 100%, 55%)" />
<g stroke="hsl(120, 100%, 40%)"><line x1="556.5068511804714" x2="616.8209694015702" y1="94" y2="94" />
<line x1="556.5068511804714" x2="556.5068511804714" y1="88" y2="100" />
<line x1="616.8209694015702" x2="616.8209694015702" y1="88" y2="100" />
</g>
</g>
<g fill="hsl(240, 100%, 40%)">
<text y="132">generateModule.16.0</text>
<text y="132" x="684.8508989301188" text-anchor="end">7.080 s</text>
</g>
<g>
<title>7.080 s ± 1.72 s</title>
<rect y="138" rx="5" height="22" width="684.8508989301188" fill="hsl(240, 100%, 80%)" stroke="hsl(240, 100%, 55%)" />
<g stroke="hsl(240, 100%, 40%)"><line x1="518.7889334753899" x2="850.9128643848477" y1="149" y2="149" />
<line x1="518.7889334753899" x2="518.7889334753899" y1="143" y2="155" />
<line x1="850.9128643848477" x2="850.9128643848477" y1="143" y2="155" />
</g>
</g>
</g>
</svg>
