<svg xmlns="http://www.w3.org/2000/svg" height="172" width="960.0" font-size="16" font-family="sans-serif" stroke-width="2">
<g transform="translate(10.0 0)">
<g fill="hsl(0, 100%, 40%)">
<text y="22">generateModule.15.0</text>
<text y="22" x="533.8644028216471" text-anchor="end">9.87 ms</text>
</g>
<g>
<title>9.87 ms ± 254 μs</title>
<rect y="28" rx="5" height="22" width="533.8644028216471" fill="hsl(0, 100%, 80%)" stroke="hsl(0, 100%, 55%)" />
<g stroke="hsl(0, 100%, 40%)"><line x1="520.0967260863806" x2="547.6320795569136" y1="39" y2="39" />
<line x1="520.0967260863806" x2="520.0967260863806" y1="33" y2="45" />
<line x1="547.6320795569136" x2="547.6320795569136" y1="33" y2="45" />
</g>
</g>
<g fill="hsl(120, 100%, 40%)">
<text y="77">generateModule.15.1</text>
<text y="77" x="855.2536055790843" text-anchor="end">15.8 ms</text>
</g>
<g>
<title>15.8 ms ± 1.6 ms</title>
<rect y="83" rx="5" height="22" width="855.2536055790843" fill="hsl(120, 100%, 80%)" stroke="hsl(120, 100%, 55%)" />
<g stroke="hsl(120, 100%, 40%)"><line x1="770.5072111581685" x2="940.0" y1="94" y2="94" />
<line x1="770.5072111581685" x2="770.5072111581685" y1="88" y2="100" />
<line x1="940.0" x2="940.0" y1="88" y2="100" />
</g>
</g>
<g fill="hsl(240, 100%, 40%)">
<text y="132">generateModule.16.0</text>
<text y="132" x="871.266174949848" text-anchor="end">16.1 ms</text>
</g>
<g>
<title>16.1 ms ± 874 μs</title>
<rect y="138" rx="5" height="22" width="871.266174949848" fill="hsl(240, 100%, 80%)" stroke="hsl(240, 100%, 55%)" />
<g stroke="hsl(240, 100%, 40%)"><line x1="823.9722805016028" x2="918.5600693980933" y1="149" y2="149" />
<line x1="823.9722805016028" x2="823.9722805016028" y1="143" y2="155" />
<line x1="918.5600693980933" x2="918.5600693980933" y1="143" y2="155" />
</g>
</g>
</g>
</svg>
