<svg xmlns="http://www.w3.org/2000/svg" height="172" width="960.0" font-size="16" font-family="sans-serif" stroke-width="2">
<g transform="translate(10.0 0)">
<g fill="hsl(0, 100%, 40%)">
<text y="22">generateModule.15.0</text>
<text y="22" x="381.4746971923058" text-anchor="end">2.65 ms</text>
</g>
<g>
<title>2.65 ms ± 169 μs</title>
<rect y="28" rx="5" height="22" width="381.4746971923058" fill="hsl(0, 100%, 80%)" stroke="hsl(0, 100%, 55%)" />
<g stroke="hsl(0, 100%, 40%)"><line x1="357.1953082687057" x2="405.754086115906" y1="39" y2="39" />
<line x1="357.1953082687057" x2="357.1953082687057" y1="33" y2="45" />
<line x1="405.754086115906" x2="405.754086115906" y1="33" y2="45" />
</g>
</g>
<g fill="hsl(120, 100%, 40%)">
<text y="77">generateModule.15.1</text>
<text y="77" x="834.3504493065584" text-anchor="end">5.80 ms</text>
</g>
<g>
<title>5.80 ms ± 421 μs</title>
<rect y="83" rx="5" height="22" width="834.3504493065584" fill="hsl(120, 100%, 80%)" stroke="hsl(120, 100%, 55%)" />
<g stroke="hsl(120, 100%, 40%)"><line x1="773.9102789258129" x2="894.7906196873039" y1="94" y2="94" />
<line x1="773.9102789258129" x2="773.9102789258129" y1="88" y2="100" />
<line x1="894.7906196873039" x2="894.7906196873039" y1="88" y2="100" />
</g>
</g>
<g fill="hsl(240, 100%, 40%)">
<text y="132">generateModule.16.0</text>
<text y="132" x="856.9957748549476" text-anchor="end">5.96 ms</text>
</g>
<g>
<title>5.96 ms ± 577 μs</title>
<rect y="138" rx="5" height="22" width="856.9957748549476" fill="hsl(240, 100%, 80%)" stroke="hsl(240, 100%, 55%)" />
<g stroke="hsl(240, 100%, 40%)"><line x1="773.9915497098953" x2="940.0" y1="149" y2="149" />
<line x1="773.9915497098953" x2="773.9915497098953" y1="143" y2="155" />
<line x1="940.0" x2="940.0" y1="143" y2="155" />
</g>
</g>
</g>
</svg>
