<svg xmlns="http://www.w3.org/2000/svg" height="172" width="960.0" font-size="16" font-family="sans-serif" stroke-width="2">
<g transform="translate(10.0 0)">
<g fill="hsl(0, 100%, 40%)">
<text y="22">generateModule.15.0</text>
<text y="22" x="642.0130031635339" text-anchor="end">12.9 ms</text>
</g>
<g>
<title>12.9 ms ± 155 μs</title>
<rect y="28" rx="5" height="22" width="642.0130031635339" fill="hsl(0, 100%, 80%)" stroke="hsl(0, 100%, 55%)" />
<g stroke="hsl(0, 100%, 40%)"><line x1="634.2817214055161" x2="649.7442849215516" y1="39" y2="39" />
<line x1="634.2817214055161" x2="634.2817214055161" y1="33" y2="45" />
<line x1="649.7442849215516" x2="649.7442849215516" y1="33" y2="45" />
</g>
</g>
<g fill="hsl(120, 100%, 40%)">
<text y="77">generateModule.15.1</text>
<text y="77" x="755.0764587010465" text-anchor="end">15.2 ms</text>
</g>
<g>
<title>15.2 ms ± 1.4 ms</title>
<rect y="83" rx="5" height="22" width="755.0764587010465" fill="hsl(120, 100%, 80%)" stroke="hsl(120, 100%, 55%)" />
<g stroke="hsl(120, 100%, 40%)"><line x1="687.7548811690853" x2="822.3980362330077" y1="94" y2="94" />
<line x1="687.7548811690853" x2="687.7548811690853" y1="88" y2="100" />
<line x1="822.3980362330077" x2="822.3980362330077" y1="88" y2="100" />
</g>
</g>
<g fill="hsl(240, 100%, 40%)">
<text y="132">generateModule.16.0</text>
<text y="132" x="897.029199829611" text-anchor="end">18.0 ms</text>
</g>
<g>
<title>18.0 ms ± 862 μs</title>
<rect y="138" rx="5" height="22" width="897.029199829611" fill="hsl(240, 100%, 80%)" stroke="hsl(240, 100%, 55%)" />
<g stroke="hsl(240, 100%, 40%)"><line x1="854.058399659222" x2="940.0" y1="149" y2="149" />
<line x1="854.058399659222" x2="854.058399659222" y1="143" y2="155" />
<line x1="940.0" x2="940.0" y1="143" y2="155" />
</g>
</g>
</g>
</svg>
