<svg xmlns="http://www.w3.org/2000/svg" height="172" width="960.0" font-size="16" font-family="sans-serif" stroke-width="2">
<g transform="translate(10.0 0)">
<g fill="hsl(0, 100%, 40%)">
<text y="22">generateModule.15.0</text>
<text y="22" x="460.26411674634903" text-anchor="end">3.73 ms</text>
</g>
<g>
<title>3.73 ms ± 284 μs</title>
<rect y="28" rx="5" height="22" width="460.26411674634903" fill="hsl(0, 100%, 80%)" stroke="hsl(0, 100%, 55%)" />
<g stroke="hsl(0, 100%, 40%)"><line x1="425.18668001647876" x2="495.3415534762193" y1="39" y2="39" />
<line x1="425.18668001647876" x2="425.18668001647876" y1="33" y2="45" />
<line x1="495.3415534762193" x2="495.3415534762193" y1="33" y2="45" />
</g>
</g>
<g fill="hsl(120, 100%, 40%)">
<text y="77">generateModule.15.1</text>
<text y="77" x="832.8500639940235" text-anchor="end">6.74 ms</text>
</g>
<g>
<title>6.74 ms ± 520 μs</title>
<rect y="83" rx="5" height="22" width="832.8500639940235" fill="hsl(120, 100%, 80%)" stroke="hsl(120, 100%, 55%)" />
<g stroke="hsl(120, 100%, 40%)"><line x1="768.66808255565" x2="897.0320454323969" y1="94" y2="94" />
<line x1="768.66808255565" x2="768.66808255565" y1="88" y2="100" />
<line x1="897.0320454323969" x2="897.0320454323969" y1="88" y2="100" />
</g>
</g>
<g fill="hsl(240, 100%, 40%)">
<text y="132">generateModule.16.0</text>
<text y="132" x="884.1196934173463" text-anchor="end">7.16 ms</text>
</g>
<g>
<title>7.16 ms ± 453 μs</title>
<rect y="138" rx="5" height="22" width="884.1196934173463" fill="hsl(240, 100%, 80%)" stroke="hsl(240, 100%, 55%)" />
<g stroke="hsl(240, 100%, 40%)"><line x1="828.2393868346926" x2="940.0" y1="149" y2="149" />
<line x1="828.2393868346926" x2="828.2393868346926" y1="143" y2="155" />
<line x1="940.0" x2="940.0" y1="143" y2="155" />
</g>
</g>
</g>
</svg>
