<svg xmlns="http://www.w3.org/2000/svg" height="172" width="960.0" font-size="16" font-family="sans-serif" stroke-width="2">
<g transform="translate(10.0 0)">
<g fill="hsl(0, 100%, 40%)">
<text y="22">generateModule.15.0</text>
<text y="22" x="468.32521244117373" text-anchor="end">3.65 ms</text>
</g>
<g>
<title>3.65 ms ± 359 μs</title>
<rect y="28" rx="5" height="22" width="468.32521244117373" fill="hsl(0, 100%, 80%)" stroke="hsl(0, 100%, 55%)" />
<g stroke="hsl(0, 100%, 40%)"><line x1="422.30469490302704" x2="514.3457299793205" y1="39" y2="39" />
<line x1="422.30469490302704" x2="422.30469490302704" y1="33" y2="45" />
<line x1="514.3457299793205" x2="514.3457299793205" y1="33" y2="45" />
</g>
</g>
<g fill="hsl(120, 100%, 40%)">
<text y="77">generateModule.15.1</text>
<text y="77" x="832.8449634612314" text-anchor="end">6.49 ms</text>
</g>
<g>
<title>6.49 ms ± 571 μs</title>
<rect y="83" rx="5" height="22" width="832.8449634612314" fill="hsl(120, 100%, 80%)" stroke="hsl(120, 100%, 55%)" />
<g stroke="hsl(120, 100%, 40%)"><line x1="759.6396686490286" x2="906.0502582734341" y1="94" y2="94" />
<line x1="759.6396686490286" x2="759.6396686490286" y1="88" y2="100" />
<line x1="906.0502582734341" x2="906.0502582734341" y1="88" y2="100" />
</g>
</g>
<g fill="hsl(240, 100%, 40%)">
<text y="132">generateModule.16.0</text>
<text y="132" x="895.5371399393401" text-anchor="end">6.98 ms</text>
</g>
<g>
<title>6.98 ms ± 347 μs</title>
<rect y="138" rx="5" height="22" width="895.5371399393401" fill="hsl(240, 100%, 80%)" stroke="hsl(240, 100%, 55%)" />
<g stroke="hsl(240, 100%, 40%)"><line x1="851.0742798786803" x2="940.0" y1="149" y2="149" />
<line x1="851.0742798786803" x2="851.0742798786803" y1="143" y2="155" />
<line x1="940.0" x2="940.0" y1="143" y2="155" />
</g>
</g>
</g>
</svg>
