<svg xmlns="http://www.w3.org/2000/svg" height="172" width="960.0" font-size="16" font-family="sans-serif" stroke-width="2">
<g transform="translate(10.0 0)">
<g fill="hsl(0, 100%, 40%)">
<text y="22">generateModule.15.0</text>
<text y="22" x="830.868058630233" text-anchor="end">4.185 s</text>
</g>
<g>
<title>4.185 s ± 192 ms</title>
<rect y="28" rx="5" height="22" width="830.868058630233" fill="hsl(0, 100%, 80%)" stroke="hsl(0, 100%, 55%)" />
<g stroke="hsl(0, 100%, 40%)"><line x1="792.7575495587154" x2="868.9785677017506" y1="39" y2="39" />
<line x1="792.7575495587154" x2="792.7575495587154" y1="33" y2="45" />
<line x1="868.9785677017506" x2="868.9785677017506" y1="33" y2="45" />
</g>
</g>
<g fill="hsl(120, 100%, 40%)">
<text y="77">generateModule.15.1</text>
<text y="77" x="833.0051164127091" text-anchor="end">4.195 s</text>
</g>
<g>
<title>4.195 s ± 162 ms</title>
<rect y="83" rx="5" height="22" width="833.0051164127091" fill="hsl(120, 100%, 80%)" stroke="hsl(120, 100%, 55%)" />
<g stroke="hsl(120, 100%, 40%)"><line x1="800.8729043686791" x2="865.137328456739" y1="94" y2="94" />
<line x1="800.8729043686791" x2="800.8729043686791" y1="88" y2="100" />
<line x1="865.137328456739" x2="865.137328456739" y1="88" y2="100" />
</g>
</g>
<g fill="hsl(240, 100%, 40%)">
<text y="132">generateModule.16.0</text>
<text y="132" x="865.1823904006983" text-anchor="end">4.357 s</text>
</g>
<g>
<title>4.357 s ± 377 ms</title>
<rect y="138" rx="5" height="22" width="865.1823904006983" fill="hsl(240, 100%, 80%)" stroke="hsl(240, 100%, 55%)" />
<g stroke="hsl(240, 100%, 40%)"><line x1="790.3647808013966" x2="940.0" y1="149" y2="149" />
<line x1="790.3647808013966" x2="790.3647808013966" y1="143" y2="155" />
<line x1="940.0" x2="940.0" y1="143" y2="155" />
</g>
</g>
</g>
</svg>
