<svg xmlns="http://www.w3.org/2000/svg" height="172" width="960.0" font-size="16" font-family="sans-serif" stroke-width="2">
<g transform="translate(10.0 0)">
<g fill="hsl(0, 100%, 40%)">
<text y="22">generateModule.15.0</text>
<text y="22" x="544.8004789728967" text-anchor="end">11.2 ms</text>
</g>
<g>
<title>11.2 ms ± 1.0 ms</title>
<rect y="28" rx="5" height="22" width="544.8004789728967" fill="hsl(0, 100%, 80%)" stroke="hsl(0, 100%, 55%)" />
<g stroke="hsl(0, 100%, 40%)"><line x1="496.11910949787733" x2="593.481848447916" y1="39" y2="39" />
<line x1="496.11910949787733" x2="496.11910949787733" y1="33" y2="45" />
<line x1="593.481848447916" x2="593.481848447916" y1="33" y2="45" />
</g>
</g>
<g fill="hsl(120, 100%, 40%)">
<text y="77">generateModule.15.1</text>
<text y="77" x="812.7469853285278" text-anchor="end">16.7 ms</text>
</g>
<g>
<title>16.7 ms ± 480 μs</title>
<rect y="83" rx="5" height="22" width="812.7469853285278" fill="hsl(120, 100%, 80%)" stroke="hsl(120, 100%, 55%)" />
<g stroke="hsl(120, 100%, 40%)"><line x1="789.3928672069526" x2="836.101103450103" y1="94" y2="94" />
<line x1="789.3928672069526" x2="789.3928672069526" y1="88" y2="100" />
<line x1="836.101103450103" x2="836.101103450103" y1="88" y2="100" />
</g>
</g>
<g fill="hsl(240, 100%, 40%)">
<text y="132">generateModule.16.0</text>
<text y="132" x="872.1562893387188" text-anchor="end">17.9 ms</text>
</g>
<g>
<title>17.9 ms ± 1.4 ms</title>
<rect y="138" rx="5" height="22" width="872.1562893387188" fill="hsl(240, 100%, 80%)" stroke="hsl(240, 100%, 55%)" />
<g stroke="hsl(240, 100%, 40%)"><line x1="804.3125786774376" x2="940.0" y1="149" y2="149" />
<line x1="804.3125786774376" x2="804.3125786774376" y1="143" y2="155" />
<line x1="940.0" x2="940.0" y1="143" y2="155" />
</g>
</g>
</g>
</svg>
