<svg xmlns="http://www.w3.org/2000/svg" height="172" width="960.0" font-size="16" font-family="sans-serif" stroke-width="2">
<g transform="translate(10.0 0)">
<g fill="hsl(0, 100%, 40%)">
<text y="22">generateModule.15.0</text>
<text y="22" x="405.8359731872503" text-anchor="end">2.70 ms</text>
</g>
<g>
<title>2.70 ms ± 188 μs</title>
<rect y="28" rx="5" height="22" width="405.8359731872503" fill="hsl(0, 100%, 80%)" stroke="hsl(0, 100%, 55%)" />
<g stroke="hsl(0, 100%, 40%)"><line x1="377.55283695982064" x2="434.11910941468" y1="39" y2="39" />
<line x1="377.55283695982064" x2="377.55283695982064" y1="33" y2="45" />
<line x1="434.11910941468" x2="434.11910941468" y1="33" y2="45" />
</g>
</g>
<g fill="hsl(120, 100%, 40%)">
<text y="77">generateModule.15.1</text>
<text y="77" x="859.6738529302701" text-anchor="end">5.73 ms</text>
</g>
<g>
<title>5.73 ms ± 487 μs</title>
<rect y="83" rx="5" height="22" width="859.6738529302701" fill="hsl(120, 100%, 80%)" stroke="hsl(120, 100%, 55%)" />
<g stroke="hsl(120, 100%, 40%)"><line x1="786.5808260280262" x2="932.766879832514" y1="94" y2="94" />
<line x1="786.5808260280262" x2="786.5808260280262" y1="88" y2="100" />
<line x1="932.766879832514" x2="932.766879832514" y1="88" y2="100" />
</g>
</g>
<g fill="hsl(240, 100%, 40%)">
<text y="132">generateModule.16.0</text>
<text y="132" x="876.5708079787215" text-anchor="end">5.84 ms</text>
</g>
<g>
<title>5.84 ms ± 423 μs</title>
<rect y="138" rx="5" height="22" width="876.5708079787215" fill="hsl(240, 100%, 80%)" stroke="hsl(240, 100%, 55%)" />
<g stroke="hsl(240, 100%, 40%)"><line x1="813.141615957443" x2="940.0" y1="149" y2="149" />
<line x1="813.141615957443" x2="813.141615957443" y1="143" y2="155" />
<line x1="940.0" x2="940.0" y1="143" y2="155" />
</g>
</g>
</g>
</svg>
