<svg xmlns="http://www.w3.org/2000/svg" height="172" width="960.0" font-size="16" font-family="sans-serif" stroke-width="2">
<g transform="translate(10.0 0)">
<g fill="hsl(0, 100%, 40%)">
<text y="22">generateModule.15.0</text>
<text y="22" x="448.74782627799476" text-anchor="end">3.33 ms</text>
</g>
<g>
<title>3.33 ms ± 193 μs</title>
<rect y="28" rx="5" height="22" width="448.74782627799476" fill="hsl(0, 100%, 80%)" stroke="hsl(0, 100%, 55%)" />
<g stroke="hsl(0, 100%, 40%)"><line x1="422.7551370184693" x2="474.7405155375202" y1="39" y2="39" />
<line x1="422.7551370184693" x2="422.7551370184693" y1="33" y2="45" />
<line x1="474.7405155375202" x2="474.7405155375202" y1="33" y2="45" />
</g>
</g>
<g fill="hsl(120, 100%, 40%)">
<text y="77">generateModule.15.1</text>
<text y="77" x="828.569944329063" text-anchor="end">6.14 ms</text>
</g>
<g>
<title>6.14 ms ± 488 μs</title>
<rect y="83" rx="5" height="22" width="828.569944329063" fill="hsl(120, 100%, 80%)" stroke="hsl(120, 100%, 55%)" />
<g stroke="hsl(120, 100%, 40%)"><line x1="762.6492056842733" x2="894.4906829738527" y1="94" y2="94" />
<line x1="762.6492056842733" x2="762.6492056842733" y1="88" y2="100" />
<line x1="894.4906829738527" x2="894.4906829738527" y1="88" y2="100" />
</g>
</g>
<g fill="hsl(240, 100%, 40%)">
<text y="132">generateModule.16.0</text>
<text y="132" x="870.7279088676023" text-anchor="end">6.45 ms</text>
</g>
<g>
<title>6.45 ms ± 513 μs</title>
<rect y="138" rx="5" height="22" width="870.7279088676023" fill="hsl(240, 100%, 80%)" stroke="hsl(240, 100%, 55%)" />
<g stroke="hsl(240, 100%, 40%)"><line x1="801.4558177352046" x2="940.0" y1="149" y2="149" />
<line x1="801.4558177352046" x2="801.4558177352046" y1="143" y2="155" />
<line x1="940.0" x2="940.0" y1="143" y2="155" />
</g>
</g>
</g>
</svg>
