<svg xmlns="http://www.w3.org/2000/svg" height="172" width="960.0" font-size="16" font-family="sans-serif" stroke-width="2">
<g transform="translate(10.0 0)">
<g fill="hsl(0, 100%, 40%)">
<text y="22">generateModule.15.0</text>
<text y="22" x="380.1446835520722" text-anchor="end">2.48 ms</text>
</g>
<g>
<title>2.48 ms ± 189 μs</title>
<rect y="28" rx="5" height="22" width="380.1446835520722" fill="hsl(0, 100%, 80%)" stroke="hsl(0, 100%, 55%)" />
<g stroke="hsl(0, 100%, 40%)"><line x1="351.2382232044698" x2="409.05114389967457" y1="39" y2="39" />
<line x1="351.2382232044698" x2="351.2382232044698" y1="33" y2="45" />
<line x1="409.05114389967457" x2="409.05114389967457" y1="33" y2="45" />
</g>
</g>
<g fill="hsl(120, 100%, 40%)">
<text y="77">generateModule.15.1</text>
<text y="77" x="831.6155690153244" text-anchor="end">5.43 ms</text>
</g>
<g>
<title>5.43 ms ± 271 μs</title>
<rect y="83" rx="5" height="22" width="831.6155690153244" fill="hsl(120, 100%, 80%)" stroke="hsl(120, 100%, 55%)" />
<g stroke="hsl(120, 100%, 40%)"><line x1="790.1900674900451" x2="873.0410705406036" y1="94" y2="94" />
<line x1="790.1900674900451" x2="790.1900674900451" y1="88" y2="100" />
<line x1="873.0410705406036" x2="873.0410705406036" y1="88" y2="100" />
</g>
</g>
<g fill="hsl(240, 100%, 40%)">
<text y="132">generateModule.16.0</text>
<text y="132" x="865.3501540109974" text-anchor="end">5.65 ms</text>
</g>
<g>
<title>5.65 ms ± 488 μs</title>
<rect y="138" rx="5" height="22" width="865.3501540109974" fill="hsl(240, 100%, 80%)" stroke="hsl(240, 100%, 55%)" />
<g stroke="hsl(240, 100%, 40%)"><line x1="790.7003080219947" x2="940.0" y1="149" y2="149" />
<line x1="790.7003080219947" x2="790.7003080219947" y1="143" y2="155" />
<line x1="940.0" x2="940.0" y1="143" y2="155" />
</g>
</g>
</g>
</svg>
