<svg xmlns="http://www.w3.org/2000/svg" height="227" width="960.0" font-size="16" font-family="sans-serif" stroke-width="2">
<g transform="translate(10.0 0)">
<g fill="hsl(0, 100%, 40%)">
<text y="22">generateModule.14.0</text>
<text y="22" x="447.3816521368886" text-anchor="end">3.41 ms</text>
</g>
<g>
<title>3.41 ms ± 227 μs</title>
<rect y="28" rx="5" height="22" width="447.3816521368886" fill="hsl(0, 100%, 80%)" stroke="hsl(0, 100%, 55%)" />
<g stroke="hsl(0, 100%, 40%)"><line x1="417.57687375910683" x2="477.18643051467035" y1="39" y2="39" />
<line x1="417.57687375910683" x2="417.57687375910683" y1="33" y2="45" />
<line x1="477.18643051467035" x2="477.18643051467035" y1="33" y2="45" />
</g>
</g>
<g fill="hsl(90, 100%, 40%)">
<text y="77">generateModule.15.0</text>
<text y="77" x="459.1798378415752" text-anchor="end">3.50 ms</text>
</g>
<g>
<title>3.50 ms ± 235 μs</title>
<rect y="83" rx="5" height="22" width="459.1798378415752" fill="hsl(90, 100%, 80%)" stroke="hsl(90, 100%, 55%)" />
<g stroke="hsl(90, 100%, 40%)"><line x1="428.34820412735286" x2="490.0114715557975" y1="94" y2="94" />
<line x1="428.34820412735286" x2="428.34820412735286" y1="88" y2="100" />
<line x1="490.0114715557975" x2="490.0114715557975" y1="88" y2="100" />
</g>
</g>
<g fill="hsl(180, 100%, 40%)">
<text y="132">generateModule.15.1</text>
<text y="132" x="795.5543164238426" text-anchor="end">6.06 ms</text>
</g>
<g>
<title>6.06 ms ± 429 μs</title>
<rect y="138" rx="5" height="22" width="795.5543164238426" fill="hsl(180, 100%, 80%)" stroke="hsl(180, 100%, 55%)" />
<g stroke="hsl(180, 100%, 40%)"><line x1="739.2357740320948" x2="851.8728588155903" y1="149" y2="149" />
<line x1="739.2357740320948" x2="739.2357740320948" y1="143" y2="155" />
<line x1="851.8728588155903" x2="851.8728588155903" y1="143" y2="155" />
</g>
</g>
<g fill="hsl(270, 100%, 40%)">
<text y="187">generateModule.16.0</text>
<text y="187" x="866.0905609378987" text-anchor="end">6.60 ms</text>
</g>
<g>
<title>6.60 ms ± 563 μs</title>
<rect y="193" rx="5" height="22" width="866.0905609378987" fill="hsl(270, 100%, 80%)" stroke="hsl(270, 100%, 55%)" />
<g stroke="hsl(270, 100%, 40%)"><line x1="792.1811218757973" x2="940.0" y1="204" y2="204" />
<line x1="792.1811218757973" x2="792.1811218757973" y1="198" y2="210" />
<line x1="940.0" x2="940.0" y1="198" y2="210" />
</g>
</g>
</g>
</svg>
