<svg xmlns="http://www.w3.org/2000/svg" height="172" width="960.0" font-size="16" font-family="sans-serif" stroke-width="2">
<g transform="translate(10.0 0)">
<g fill="hsl(0, 100%, 40%)">
<text y="22">Sample.15.0</text>
<text y="22" x="830.0446421471212" text-anchor="end">14.2 ms</text>
</g>
<g>
<title>14.2 ms ± 1.4 ms</title>
<rect y="28" rx="5" height="22" width="830.0446421471212" fill="hsl(0, 100%, 80%)" stroke="hsl(0, 100%, 55%)" />
<g stroke="hsl(0, 100%, 40%)"><line x1="747.6970061805923" x2="912.39227811365" y1="39" y2="39" />
<line x1="747.6970061805923" x2="747.6970061805923" y1="33" y2="45" />
<line x1="912.39227811365" x2="912.39227811365" y1="33" y2="45" />
</g>
</g>
<g fill="hsl(120, 100%, 40%)">
<text y="77">Sample.15.1</text>
<text y="77" x="860.5580956674171" text-anchor="end">14.7 ms</text>
</g>
<g>
<title>14.7 ms ± 661 μs</title>
<rect y="83" rx="5" height="22" width="860.5580956674171" fill="hsl(120, 100%, 80%)" stroke="hsl(120, 100%, 55%)" />
<g stroke="hsl(120, 100%, 40%)"><line x1="821.795925494724" x2="899.3202658401102" y1="94" y2="94" />
<line x1="821.795925494724" x2="821.795925494724" y1="88" y2="100" />
<line x1="899.3202658401102" x2="899.3202658401102" y1="88" y2="100" />
</g>
</g>
<g fill="hsl(240, 100%, 40%)">
<text y="132">Sample.16.0</text>
<text y="132" x="876.2300175940438" text-anchor="end">14.9 ms</text>
</g>
<g>
<title>14.9 ms ± 1.1 ms</title>
<rect y="138" rx="5" height="22" width="876.2300175940438" fill="hsl(240, 100%, 80%)" stroke="hsl(240, 100%, 55%)" />
<g stroke="hsl(240, 100%, 40%)"><line x1="812.4600351880877" x2="940.0" y1="149" y2="149" />
<line x1="812.4600351880877" x2="812.4600351880877" y1="143" y2="155" />
<line x1="940.0" x2="940.0" y1="143" y2="155" />
</g>
</g>
</g>
</svg>
