<svg xmlns="http://www.w3.org/2000/svg" height="227" width="960.0" font-size="16" font-family="sans-serif" stroke-width="2">
<g transform="translate(10.0 0)">
<g fill="hsl(0, 100%, 40%)">
<text y="22">Sample.14.0</text>
<text y="22" x="851.028977065664" text-anchor="end">16.5 ms</text>
</g>
<g>
<title>16.5 ms ± 1.5 ms</title>
<rect y="28" rx="5" height="22" width="851.028977065664" fill="hsl(0, 100%, 80%)" stroke="hsl(0, 100%, 55%)" />
<g stroke="hsl(0, 100%, 40%)"><line x1="774.0932716233402" x2="927.9646825079877" y1="39" y2="39" />
<line x1="774.0932716233402" x2="774.0932716233402" y1="33" y2="45" />
<line x1="927.9646825079877" x2="927.9646825079877" y1="33" y2="45" />
</g>
</g>
<g fill="hsl(90, 100%, 40%)">
<text y="77">Sample.15.0</text>
<text y="77" x="859.7486899573491" text-anchor="end">16.6 ms</text>
</g>
<g>
<title>16.6 ms ± 772 μs</title>
<rect y="83" rx="5" height="22" width="859.7486899573491" fill="hsl(90, 100%, 80%)" stroke="hsl(90, 100%, 55%)" />
<g stroke="hsl(90, 100%, 40%)"><line x1="819.8045502470815" x2="899.6928296676168" y1="94" y2="94" />
<line x1="819.8045502470815" x2="819.8045502470815" y1="88" y2="100" />
<line x1="899.6928296676168" x2="899.6928296676168" y1="88" y2="100" />
</g>
</g>
<g fill="hsl(180, 100%, 40%)">
<text y="132">Sample.15.1</text>
<text y="132" x="866.336084364877" text-anchor="end">16.8 ms</text>
</g>
<g>
<title>16.8 ms ± 1.4 ms</title>
<rect y="138" rx="5" height="22" width="866.336084364877" fill="hsl(180, 100%, 80%)" stroke="hsl(180, 100%, 55%)" />
<g stroke="hsl(180, 100%, 40%)"><line x1="794.5470487880015" x2="938.1251199417526" y1="149" y2="149" />
<line x1="794.5470487880015" x2="794.5470487880015" y1="143" y2="155" />
<line x1="938.1251199417526" x2="938.1251199417526" y1="143" y2="155" />
</g>
</g>
<g fill="hsl(270, 100%, 40%)">
<text y="187">Sample.16.0</text>
<text y="187" x="860.5988015301534" text-anchor="end">16.6 ms</text>
</g>
<g>
<title>16.6 ms ± 1.5 ms</title>
<rect y="193" rx="5" height="22" width="860.5988015301534" fill="hsl(270, 100%, 80%)" stroke="hsl(270, 100%, 55%)" />
<g stroke="hsl(270, 100%, 40%)"><line x1="781.1976030603068" x2="940.0" y1="204" y2="204" />
<line x1="781.1976030603068" x2="781.1976030603068" y1="198" y2="210" />
<line x1="940.0" x2="940.0" y1="198" y2="210" />
</g>
</g>
</g>
</svg>
