<svg xmlns="http://www.w3.org/2000/svg" height="172" width="960.0" font-size="16" font-family="sans-serif" stroke-width="2">
<g transform="translate(10.0 0)">
<g fill="hsl(0, 100%, 40%)">
<text y="22">Sample.15.0</text>
<text y="22" x="826.124694479822" text-anchor="end">15.1 ms</text>
</g>
<g>
<title>15.1 ms ± 1.5 ms</title>
<rect y="28" rx="5" height="22" width="826.124694479822" fill="hsl(0, 100%, 80%)" stroke="hsl(0, 100%, 55%)" />
<g stroke="hsl(0, 100%, 40%)"><line x1="743.6173359860086" x2="908.6320529736354" y1="39" y2="39" />
<line x1="743.6173359860086" x2="743.6173359860086" y1="33" y2="45" />
<line x1="908.6320529736354" x2="908.6320529736354" y1="33" y2="45" />
</g>
</g>
<g fill="hsl(120, 100%, 40%)">
<text y="77">Sample.15.1</text>
<text y="77" x="859.5689256939961" text-anchor="end">15.7 ms</text>
</g>
<g>
<title>15.7 ms ± 1.3 ms</title>
<rect y="83" rx="5" height="22" width="859.5689256939961" fill="hsl(120, 100%, 80%)" stroke="hsl(120, 100%, 55%)" />
<g stroke="hsl(120, 100%, 40%)"><line x1="790.7437937054328" x2="928.3940576825594" y1="94" y2="94" />
<line x1="790.7437937054328" x2="790.7437937054328" y1="88" y2="100" />
<line x1="928.3940576825594" x2="928.3940576825594" y1="88" y2="100" />
</g>
</g>
<g fill="hsl(240, 100%, 40%)">
<text y="132">Sample.16.0</text>
<text y="132" x="871.6072197981409" text-anchor="end">15.9 ms</text>
</g>
<g>
<title>15.9 ms ± 1.3 ms</title>
<rect y="138" rx="5" height="22" width="871.6072197981409" fill="hsl(240, 100%, 80%)" stroke="hsl(240, 100%, 55%)" />
<g stroke="hsl(240, 100%, 40%)"><line x1="803.2144395962819" x2="940.0" y1="149" y2="149" />
<line x1="803.2144395962819" x2="803.2144395962819" y1="143" y2="155" />
<line x1="940.0" x2="940.0" y1="143" y2="155" />
</g>
</g>
</g>
</svg>
