<svg xmlns="http://www.w3.org/2000/svg" height="172" width="960.0" font-size="16" font-family="sans-serif" stroke-width="2">
<g transform="translate(10.0 0)">
<g fill="hsl(0, 100%, 40%)">
<text y="22">Sample.15.0</text>
<text y="22" x="849.6908952139554" text-anchor="end">12.2 ms</text>
</g>
<g>
<title>12.2 ms ± 706 μs</title>
<rect y="28" rx="5" height="22" width="849.6908952139554" fill="hsl(0, 100%, 80%)" stroke="hsl(0, 100%, 55%)" />
<g stroke="hsl(0, 100%, 40%)"><line x1="800.642956849849" x2="898.7388335780618" y1="39" y2="39" />
<line x1="800.642956849849" x2="800.642956849849" y1="33" y2="45" />
<line x1="898.7388335780618" x2="898.7388335780618" y1="33" y2="45" />
</g>
</g>
<g fill="hsl(120, 100%, 40%)">
<text y="77">Sample.15.1</text>
<text y="77" x="860.9412876107958" text-anchor="end">12.4 ms</text>
</g>
<g>
<title>12.4 ms ± 1.1 ms</title>
<rect y="83" rx="5" height="22" width="860.9412876107958" fill="hsl(120, 100%, 80%)" stroke="hsl(120, 100%, 55%)" />
<g stroke="hsl(120, 100%, 40%)"><line x1="781.8825752215917" x2="940.0" y1="94" y2="94" />
<line x1="781.8825752215917" x2="781.8825752215917" y1="88" y2="100" />
<line x1="940.0" x2="940.0" y1="88" y2="100" />
</g>
</g>
<g fill="hsl(240, 100%, 40%)">
<text y="132">Sample.16.0</text>
<text y="132" x="867.3865595693652" text-anchor="end">12.5 ms</text>
</g>
<g>
<title>12.5 ms ± 406 μs</title>
<rect y="138" rx="5" height="22" width="867.3865595693652" fill="hsl(240, 100%, 80%)" stroke="hsl(240, 100%, 55%)" />
<g stroke="hsl(240, 100%, 40%)"><line x1="839.1829851630956" x2="895.5901339756348" y1="149" y2="149" />
<line x1="839.1829851630956" x2="839.1829851630956" y1="143" y2="155" />
<line x1="895.5901339756348" x2="895.5901339756348" y1="143" y2="155" />
</g>
</g>
</g>
</svg>
