<svg xmlns="http://www.w3.org/2000/svg" height="172" width="960.0" font-size="16" font-family="sans-serif" stroke-width="2">
<g transform="translate(10.0 0)">
<g fill="hsl(0, 100%, 40%)">
<text y="22">Sample.15.0</text>
<text y="22" x="827.8145262049362" text-anchor="end">16.4 ms</text>
</g>
<g>
<title>16.4 ms ± 1.1 ms</title>
<rect y="28" rx="5" height="22" width="827.8145262049362" fill="hsl(0, 100%, 80%)" stroke="hsl(0, 100%, 55%)" />
<g stroke="hsl(0, 100%, 40%)"><line x1="773.3250321518028" x2="882.3040202580696" y1="39" y2="39" />
<line x1="773.3250321518028" x2="773.3250321518028" y1="33" y2="45" />
<line x1="882.3040202580696" x2="882.3040202580696" y1="33" y2="45" />
</g>
</g>
<g fill="hsl(120, 100%, 40%)">
<text y="77">Sample.15.1</text>
<text y="77" x="868.2611993580576" text-anchor="end">17.2 ms</text>
</g>
<g>
<title>17.2 ms ± 1.4 ms</title>
<rect y="83" rx="5" height="22" width="868.2611993580576" fill="hsl(120, 100%, 80%)" stroke="hsl(120, 100%, 55%)" />
<g stroke="hsl(120, 100%, 40%)"><line x1="799.392605752589" x2="937.1297929635263" y1="94" y2="94" />
<line x1="799.392605752589" x2="799.392605752589" y1="88" y2="100" />
<line x1="937.1297929635263" x2="937.1297929635263" y1="88" y2="100" />
</g>
</g>
<g fill="hsl(240, 100%, 40%)">
<text y="132">Sample.16.0</text>
<text y="132" x="868.1074793392189" text-anchor="end">17.1 ms</text>
</g>
<g>
<title>17.1 ms ± 1.4 ms</title>
<rect y="138" rx="5" height="22" width="868.1074793392189" fill="hsl(240, 100%, 80%)" stroke="hsl(240, 100%, 55%)" />
<g stroke="hsl(240, 100%, 40%)"><line x1="796.2149586784378" x2="940.0" y1="149" y2="149" />
<line x1="796.2149586784378" x2="796.2149586784378" y1="143" y2="155" />
<line x1="940.0" x2="940.0" y1="143" y2="155" />
</g>
</g>
</g>
</svg>
