<svg xmlns="http://www.w3.org/2000/svg" height="282" width="960.0" font-size="16" font-family="sans-serif" stroke-width="2">
<g transform="translate(10.0 0)">
<g fill="hsl(0, 100%, 40%)">
<text y="22">Sample.14.0</text>
<text y="22" x="848.1108219494914" text-anchor="end">13.0 ms</text>
</g>
<g>
<title>13.0 ms ± 851 μs</title>
<rect y="28" rx="5" height="22" width="848.1108219494914" fill="hsl(0, 100%, 80%)" stroke="hsl(0, 100%, 55%)" />
<g stroke="hsl(0, 100%, 40%)"><line x1="792.7139331019663" x2="903.5077107970166" y1="39" y2="39" />
<line x1="792.7139331019663" x2="792.7139331019663" y1="33" y2="45" />
<line x1="903.5077107970166" x2="903.5077107970166" y1="33" y2="45" />
</g>
</g>
<g fill="hsl(72, 100%, 40%)">
<text y="77">Sample.15.0</text>
<text y="77" x="847.735917631393" text-anchor="end">13.0 ms</text>
</g>
<g>
<title>13.0 ms ± 927 μs</title>
<rect y="83" rx="5" height="22" width="847.735917631393" fill="hsl(72, 100%, 80%)" stroke="hsl(72, 100%, 55%)" />
<g stroke="hsl(72, 100%, 40%)"><line x1="787.4147786840451" x2="908.0570565787409" y1="94" y2="94" />
<line x1="787.4147786840451" x2="787.4147786840451" y1="88" y2="100" />
<line x1="908.0570565787409" x2="908.0570565787409" y1="88" y2="100" />
</g>
</g>
<g fill="hsl(144, 100%, 40%)">
<text y="132">Sample.15.1</text>
<text y="132" x="859.0773857256676" text-anchor="end">13.2 ms</text>
</g>
<g>
<title>13.2 ms ± 1.0 ms</title>
<rect y="138" rx="5" height="22" width="859.0773857256676" fill="hsl(144, 100%, 80%)" stroke="hsl(144, 100%, 55%)" />
<g stroke="hsl(144, 100%, 40%)"><line x1="791.212512348204" x2="926.9422591031312" y1="149" y2="149" />
<line x1="791.212512348204" x2="791.212512348204" y1="143" y2="155" />
<line x1="926.9422591031312" x2="926.9422591031312" y1="143" y2="155" />
</g>
</g>
<g fill="hsl(216, 100%, 40%)">
<text y="187">Sample.16.0</text>
<text y="187" x="867.6882219141462" text-anchor="end">13.3 ms</text>
</g>
<g>
<title>13.3 ms ± 1.1 ms</title>
<rect y="193" rx="5" height="22" width="867.6882219141462" fill="hsl(216, 100%, 80%)" stroke="hsl(216, 100%, 55%)" />
<g stroke="hsl(216, 100%, 40%)"><line x1="795.3764438282924" x2="940.0" y1="204" y2="204" />
<line x1="795.3764438282924" x2="795.3764438282924" y1="198" y2="210" />
<line x1="940.0" x2="940.0" y1="198" y2="210" />
</g>
</g>
<g fill="hsl(288, 100%, 40%)">
<text y="242">Sample.17.0</text>
<text y="242" x="882.3813731987569" text-anchor="end">13.6 ms</text>
</g>
<g>
<title>13.6 ms ± 748 μs</title>
<rect y="248" rx="5" height="22" width="882.3813731987569" fill="hsl(288, 100%, 80%)" stroke="hsl(288, 100%, 55%)" />
<g stroke="hsl(288, 100%, 40%)"><line x1="833.7361838503917" x2="931.0265625471221" y1="259" y2="259" />
<line x1="833.7361838503917" x2="833.7361838503917" y1="253" y2="265" />
<line x1="931.0265625471221" x2="931.0265625471221" y1="253" y2="265" />
</g>
</g>
</g>
</svg>
