<svg xmlns="http://www.w3.org/2000/svg" height="227" width="960.0" font-size="16" font-family="sans-serif" stroke-width="2">
<g transform="translate(10.0 0)">
<g fill="hsl(0, 100%, 40%)">
<text y="22">Sample.14.0</text>
<text y="22" x="860.9455541765855" text-anchor="end">14.4 ms</text>
</g>
<g>
<title>14.4 ms ± 1.2 ms</title>
<rect y="28" rx="5" height="22" width="860.9455541765855" fill="hsl(0, 100%, 80%)" stroke="hsl(0, 100%, 55%)" />
<g stroke="hsl(0, 100%, 40%)"><line x1="789.7553600608866" x2="932.1357482922843" y1="39" y2="39" />
<line x1="789.7553600608866" x2="789.7553600608866" y1="33" y2="45" />
<line x1="932.1357482922843" x2="932.1357482922843" y1="33" y2="45" />
</g>
</g>
<g fill="hsl(90, 100%, 40%)">
<text y="77">Sample.15.0</text>
<text y="77" x="867.9575046742882" text-anchor="end">14.5 ms</text>
</g>
<g>
<title>14.5 ms ± 759 μs</title>
<rect y="83" rx="5" height="22" width="867.9575046742882" fill="hsl(90, 100%, 80%)" stroke="hsl(90, 100%, 55%)" />
<g stroke="hsl(90, 100%, 40%)"><line x1="822.6841078406803" x2="913.2309015078961" y1="94" y2="94" />
<line x1="822.6841078406803" x2="822.6841078406803" y1="88" y2="100" />
<line x1="913.2309015078961" x2="913.2309015078961" y1="88" y2="100" />
</g>
</g>
<g fill="hsl(180, 100%, 40%)">
<text y="132">Sample.15.1</text>
<text y="132" x="885.0337834257442" text-anchor="end">14.8 ms</text>
</g>
<g>
<title>14.8 ms ± 826 μs</title>
<rect y="138" rx="5" height="22" width="885.0337834257442" fill="hsl(180, 100%, 80%)" stroke="hsl(180, 100%, 55%)" />
<g stroke="hsl(180, 100%, 40%)"><line x1="835.7717603161817" x2="934.2958065353067" y1="149" y2="149" />
<line x1="835.7717603161817" x2="835.7717603161817" y1="143" y2="155" />
<line x1="934.2958065353067" x2="934.2958065353067" y1="143" y2="155" />
</g>
</g>
<g fill="hsl(270, 100%, 40%)">
<text y="187">Sample.16.0</text>
<text y="187" x="874.7562937671736" text-anchor="end">14.7 ms</text>
</g>
<g>
<title>14.7 ms ± 1.1 ms</title>
<rect y="193" rx="5" height="22" width="874.7562937671736" fill="hsl(270, 100%, 80%)" stroke="hsl(270, 100%, 55%)" />
<g stroke="hsl(270, 100%, 40%)"><line x1="809.5125875343472" x2="940.0" y1="204" y2="204" />
<line x1="809.5125875343472" x2="809.5125875343472" y1="198" y2="210" />
<line x1="940.0" x2="940.0" y1="198" y2="210" />
</g>
</g>
</g>
</svg>
