<svg xmlns="http://www.w3.org/2000/svg" height="172" width="960.0" font-size="16" font-family="sans-serif" stroke-width="2">
<g transform="translate(10.0 0)">
<g fill="hsl(0, 100%, 40%)">
<text y="22">Sample.15.0</text>
<text y="22" x="863.1887619688126" text-anchor="end">37.6 ms</text>
</g>
<g>
<title>37.6 ms ± 3.3 ms</title>
<rect y="28" rx="5" height="22" width="863.1887619688126" fill="hsl(0, 100%, 80%)" stroke="hsl(0, 100%, 55%)" />
<g stroke="hsl(0, 100%, 40%)"><line x1="786.3775239376253" x2="940.0" y1="39" y2="39" />
<line x1="786.3775239376253" x2="786.3775239376253" y1="33" y2="45" />
<line x1="940.0" x2="940.0" y1="33" y2="45" />
</g>
</g>
<g fill="hsl(120, 100%, 40%)">
<text y="77">Sample.15.1</text>
<text y="77" x="788.608907149758" text-anchor="end">34.4 ms</text>
</g>
<g>
<title>34.4 ms ± 2.0 ms</title>
<rect y="83" rx="5" height="22" width="788.608907149758" fill="hsl(120, 100%, 80%)" stroke="hsl(120, 100%, 55%)" />
<g stroke="hsl(120, 100%, 40%)"><line x1="742.7526799422604" x2="834.4651343572556" y1="94" y2="94" />
<line x1="742.7526799422604" x2="742.7526799422604" y1="88" y2="100" />
<line x1="834.4651343572556" x2="834.4651343572556" y1="88" y2="100" />
</g>
</g>
<g fill="hsl(240, 100%, 40%)">
<text y="132">Sample.16.0</text>
<text y="132" x="747.9146392890573" text-anchor="end">32.6 ms</text>
</g>
<g>
<title>32.6 ms ± 1.7 ms</title>
<rect y="138" rx="5" height="22" width="747.9146392890573" fill="hsl(240, 100%, 80%)" stroke="hsl(240, 100%, 55%)" />
<g stroke="hsl(240, 100%, 40%)"><line x1="709.1079286118979" x2="786.7213499662166" y1="149" y2="149" />
<line x1="709.1079286118979" x2="709.1079286118979" y1="143" y2="155" />
<line x1="786.7213499662166" x2="786.7213499662166" y1="143" y2="155" />
</g>
</g>
</g>
</svg>
