<svg xmlns="http://www.w3.org/2000/svg" height="172" width="960.0" font-size="16" font-family="sans-serif" stroke-width="2">
<g transform="translate(10.0 0)">
<g fill="hsl(0, 100%, 40%)">
<text y="22">Sample.15.0</text>
<text y="22" x="845.4963889077497" text-anchor="end">14.6 ms</text>
</g>
<g>
<title>14.6 ms ± 1.2 ms</title>
<rect y="28" rx="5" height="22" width="845.4963889077497" fill="hsl(0, 100%, 80%)" stroke="hsl(0, 100%, 55%)" />
<g stroke="hsl(0, 100%, 40%)"><line x1="773.8006427169457" x2="917.1921350985538" y1="39" y2="39" />
<line x1="773.8006427169457" x2="773.8006427169457" y1="33" y2="45" />
<line x1="917.1921350985538" x2="917.1921350985538" y1="33" y2="45" />
</g>
</g>
<g fill="hsl(120, 100%, 40%)">
<text y="77">Sample.15.1</text>
<text y="77" x="856.173306215827" text-anchor="end">14.8 ms</text>
</g>
<g>
<title>14.8 ms ± 1.3 ms</title>
<rect y="83" rx="5" height="22" width="856.173306215827" fill="hsl(120, 100%, 80%)" stroke="hsl(120, 100%, 55%)" />
<g stroke="hsl(120, 100%, 40%)"><line x1="778.9979527623839" x2="933.3486596692701" y1="94" y2="94" />
<line x1="778.9979527623839" x2="778.9979527623839" y1="88" y2="100" />
<line x1="933.3486596692701" x2="933.3486596692701" y1="88" y2="100" />
</g>
</g>
<g fill="hsl(240, 100%, 40%)">
<text y="132">Sample.16.0</text>
<text y="132" x="867.103967526465" text-anchor="end">14.9 ms</text>
</g>
<g>
<title>14.9 ms ± 1.3 ms</title>
<rect y="138" rx="5" height="22" width="867.103967526465" fill="hsl(240, 100%, 80%)" stroke="hsl(240, 100%, 55%)" />
<g stroke="hsl(240, 100%, 40%)"><line x1="794.20793505293" x2="940.0" y1="149" y2="149" />
<line x1="794.20793505293" x2="794.20793505293" y1="143" y2="155" />
<line x1="940.0" x2="940.0" y1="143" y2="155" />
</g>
</g>
</g>
</svg>
