<svg xmlns="http://www.w3.org/2000/svg" height="282" width="960.0" font-size="16" font-family="sans-serif" stroke-width="2">
<g transform="translate(10.0 0)">
<g fill="hsl(0, 100%, 40%)">
<text y="22">Sample.14.0</text>
<text y="22" x="831.8244677652855" text-anchor="end">14.2 ms</text>
</g>
<g>
<title>14.2 ms ± 906 μs</title>
<rect y="28" rx="5" height="22" width="831.8244677652855" fill="hsl(0, 100%, 80%)" stroke="hsl(0, 100%, 55%)" />
<g stroke="hsl(0, 100%, 40%)"><line x1="778.7478650585238" x2="884.9010704720472" y1="39" y2="39" />
<line x1="778.7478650585238" x2="778.7478650585238" y1="33" y2="45" />
<line x1="884.9010704720472" x2="884.9010704720472" y1="33" y2="45" />
</g>
</g>
<g fill="hsl(72, 100%, 40%)">
<text y="77">Sample.15.0</text>
<text y="77" x="852.2194816611267" text-anchor="end">14.5 ms</text>
</g>
<g>
<title>14.5 ms ± 1.4 ms</title>
<rect y="83" rx="5" height="22" width="852.2194816611267" fill="hsl(72, 100%, 80%)" stroke="hsl(72, 100%, 55%)" />
<g stroke="hsl(72, 100%, 40%)"><line x1="767.4870135002944" x2="936.9519498219589" y1="94" y2="94" />
<line x1="767.4870135002944" x2="767.4870135002944" y1="88" y2="100" />
<line x1="936.9519498219589" x2="936.9519498219589" y1="88" y2="100" />
</g>
</g>
<g fill="hsl(144, 100%, 40%)">
<text y="132">Sample.15.1</text>
<text y="132" x="858.2818532157893" text-anchor="end">14.6 ms</text>
</g>
<g>
<title>14.6 ms ± 1.4 ms</title>
<rect y="138" rx="5" height="22" width="858.2818532157893" fill="hsl(144, 100%, 80%)" stroke="hsl(144, 100%, 55%)" />
<g stroke="hsl(144, 100%, 40%)"><line x1="776.5637064315786" x2="940.0" y1="149" y2="149" />
<line x1="776.5637064315786" x2="776.5637064315786" y1="143" y2="155" />
<line x1="940.0" x2="940.0" y1="143" y2="155" />
</g>
</g>
<g fill="hsl(216, 100%, 40%)">
<text y="187">Sample.16.0</text>
<text y="187" x="847.2992445760846" text-anchor="end">14.5 ms</text>
</g>
<g>
<title>14.5 ms ± 1.4 ms</title>
<rect y="193" rx="5" height="22" width="847.2992445760846" fill="hsl(216, 100%, 80%)" stroke="hsl(216, 100%, 55%)" />
<g stroke="hsl(216, 100%, 40%)"><line x1="767.562109714971" x2="927.0363794371981" y1="204" y2="204" />
<line x1="767.562109714971" x2="767.562109714971" y1="198" y2="210" />
<line x1="927.0363794371981" x2="927.0363794371981" y1="198" y2="210" />
</g>
</g>
<g fill="hsl(288, 100%, 40%)">
<text y="242">Sample.17.0</text>
<text y="242" x="839.4607967171451" text-anchor="end">14.3 ms</text>
</g>
<g>
<title>14.3 ms ± 1.3 ms</title>
<rect y="248" rx="5" height="22" width="839.4607967171451" fill="hsl(288, 100%, 80%)" stroke="hsl(288, 100%, 55%)" />
<g stroke="hsl(288, 100%, 40%)"><line x1="765.7860780720272" x2="913.1355153622629" y1="259" y2="259" />
<line x1="765.7860780720272" x2="765.7860780720272" y1="253" y2="265" />
<line x1="913.1355153622629" x2="913.1355153622629" y1="253" y2="265" />
</g>
</g>
</g>
</svg>
