<svg xmlns="http://www.w3.org/2000/svg" height="172" width="960.0" font-size="16" font-family="sans-serif" stroke-width="2">
<g transform="translate(10.0 0)">
<g fill="hsl(0, 100%, 40%)">
<text y="22">Sample.15.0</text>
<text y="22" x="818.1902665843352" text-anchor="end">14.6 ms</text>
</g>
<g>
<title>14.6 ms ± 1.4 ms</title>
<rect y="28" rx="5" height="22" width="818.1902665843352" fill="hsl(0, 100%, 80%)" stroke="hsl(0, 100%, 55%)" />
<g stroke="hsl(0, 100%, 40%)"><line x1="741.0068721260768" x2="895.3736610425935" y1="39" y2="39" />
<line x1="741.0068721260768" x2="741.0068721260768" y1="33" y2="45" />
<line x1="895.3736610425935" x2="895.3736610425935" y1="33" y2="45" />
</g>
</g>
<g fill="hsl(120, 100%, 40%)">
<text y="77">Sample.15.1</text>
<text y="77" x="882.4781528912986" text-anchor="end">15.7 ms</text>
</g>
<g>
<title>15.7 ms ± 1.0 ms</title>
<rect y="83" rx="5" height="22" width="882.4781528912986" fill="hsl(120, 100%, 80%)" stroke="hsl(120, 100%, 55%)" />
<g stroke="hsl(120, 100%, 40%)"><line x1="824.9563057825972" x2="940.0" y1="94" y2="94" />
<line x1="824.9563057825972" x2="824.9563057825972" y1="88" y2="100" />
<line x1="940.0" x2="940.0" y1="88" y2="100" />
</g>
</g>
<g fill="hsl(240, 100%, 40%)">
<text y="132">Sample.16.0</text>
<text y="132" x="861.7053044875834" text-anchor="end">15.4 ms</text>
</g>
<g>
<title>15.4 ms ± 1.4 ms</title>
<rect y="138" rx="5" height="22" width="861.7053044875834" fill="hsl(240, 100%, 80%)" stroke="hsl(240, 100%, 55%)" />
<g stroke="hsl(240, 100%, 40%)"><line x1="785.7641035467458" x2="937.6465054284209" y1="149" y2="149" />
<line x1="785.7641035467458" x2="785.7641035467458" y1="143" y2="155" />
<line x1="937.6465054284209" x2="937.6465054284209" y1="143" y2="155" />
</g>
</g>
</g>
</svg>
