<svg xmlns="http://www.w3.org/2000/svg" height="227" width="960.0" font-size="16" font-family="sans-serif" stroke-width="2">
<g transform="translate(10.0 0)">
<g fill="hsl(0, 100%, 40%)">
<text y="22">Sample.14.0</text>
<text y="22" x="838.0610775093251" text-anchor="end">14.7 ms</text>
</g>
<g>
<title>14.7 ms ± 965 μs</title>
<rect y="28" rx="5" height="22" width="838.0610775093251" fill="hsl(0, 100%, 80%)" stroke="hsl(0, 100%, 55%)" />
<g stroke="hsl(0, 100%, 40%)"><line x1="783.1221542843878" x2="893.0000007342624" y1="39" y2="39" />
<line x1="783.1221542843878" x2="783.1221542843878" y1="33" y2="45" />
<line x1="893.0000007342624" x2="893.0000007342624" y1="33" y2="45" />
</g>
</g>
<g fill="hsl(90, 100%, 40%)">
<text y="77">Sample.15.0</text>
<text y="77" x="831.1519272103803" text-anchor="end">14.6 ms</text>
</g>
<g>
<title>14.6 ms ± 1.4 ms</title>
<rect y="83" rx="5" height="22" width="831.1519272103803" fill="hsl(90, 100%, 80%)" stroke="hsl(90, 100%, 55%)" />
<g stroke="hsl(90, 100%, 40%)"><line x1="753.4027738192692" x2="908.9010806014915" y1="94" y2="94" />
<line x1="753.4027738192692" x2="753.4027738192692" y1="88" y2="100" />
<line x1="908.9010806014915" x2="908.9010806014915" y1="88" y2="100" />
</g>
</g>
<g fill="hsl(180, 100%, 40%)">
<text y="132">Sample.15.1</text>
<text y="132" x="837.3753276455114" text-anchor="end">14.7 ms</text>
</g>
<g>
<title>14.7 ms ± 1.2 ms</title>
<rect y="138" rx="5" height="22" width="837.3753276455114" fill="hsl(180, 100%, 80%)" stroke="hsl(180, 100%, 55%)" />
<g stroke="hsl(180, 100%, 40%)"><line x1="768.2507155686624" x2="906.4999397223605" y1="149" y2="149" />
<line x1="768.2507155686624" x2="768.2507155686624" y1="143" y2="155" />
<line x1="906.4999397223605" x2="906.4999397223605" y1="143" y2="155" />
</g>
</g>
<g fill="hsl(270, 100%, 40%)">
<text y="187">Sample.16.0</text>
<text y="187" x="861.8425705256402" text-anchor="end">15.1 ms</text>
</g>
<g>
<title>15.1 ms ± 1.4 ms</title>
<rect y="193" rx="5" height="22" width="861.8425705256402" fill="hsl(270, 100%, 80%)" stroke="hsl(270, 100%, 55%)" />
<g stroke="hsl(270, 100%, 40%)"><line x1="783.6851410512804" x2="940.0" y1="204" y2="204" />
<line x1="783.6851410512804" x2="783.6851410512804" y1="198" y2="210" />
<line x1="940.0" x2="940.0" y1="198" y2="210" />
</g>
</g>
</g>
</svg>
="198" y2="210" />
</g>
</g>
</g>
</svg>
