<svg xmlns="http://www.w3.org/2000/svg" height="172" width="960.0" font-size="16" font-family="sans-serif" stroke-width="2">
<g transform="translate(10.0 0)">
<g fill="hsl(0, 100%, 40%)">
<text y="22">Sample.15.0</text>
<text y="22" x="836.6585106561793" text-anchor="end">14.8 ms</text>
</g>
<g>
<title>14.8 ms ± 1.2 ms</title>
<rect y="28" rx="5" height="22" width="836.6585106561793" fill="hsl(0, 100%, 80%)" stroke="hsl(0, 100%, 55%)" />
<g stroke="hsl(0, 100%, 40%)"><line x1="769.7121342722871" x2="903.6048870400714" y1="39" y2="39" />
<line x1="769.7121342722871" x2="769.7121342722871" y1="33" y2="45" />
<line x1="903.6048870400714" x2="903.6048870400714" y1="33" y2="45" />
</g>
</g>
<g fill="hsl(120, 100%, 40%)">
<text y="77">Sample.15.1</text>
<text y="77" x="857.9000768166313" text-anchor="end">15.2 ms</text>
</g>
<g>
<title>15.2 ms ± 1.5 ms</title>
<rect y="83" rx="5" height="22" width="857.9000768166313" fill="hsl(120, 100%, 80%)" stroke="hsl(120, 100%, 55%)" />
<g stroke="hsl(120, 100%, 40%)"><line x1="775.8001536332627" x2="940.0" y1="94" y2="94" />
<line x1="775.8001536332627" x2="775.8001536332627" y1="88" y2="100" />
<line x1="940.0" x2="940.0" y1="88" y2="100" />
</g>
</g>
<g fill="hsl(240, 100%, 40%)">
<text y="132">Sample.16.0</text>
<text y="132" x="850.2912117998263" text-anchor="end">15.0 ms</text>
</g>
<g>
<title>15.0 ms ± 1.0 ms</title>
<rect y="138" rx="5" height="22" width="850.2912117998263" fill="hsl(240, 100%, 80%)" stroke="hsl(240, 100%, 55%)" />
<g stroke="hsl(240, 100%, 40%)"><line x1="792.6482328661402" x2="907.9341907335124" y1="149" y2="149" />
<line x1="792.6482328661402" x2="792.6482328661402" y1="143" y2="155" />
<line x1="907.9341907335124" x2="907.9341907335124" y1="143" y2="155" />
</g>
</g>
</g>
</svg>
