<svg xmlns="http://www.w3.org/2000/svg" height="227" width="960.0" font-size="16" font-family="sans-serif" stroke-width="2">
<g transform="translate(10.0 0)">
<g fill="hsl(0, 100%, 40%)">
<text y="22">generateModule.14.0</text>
<text y="22" x="435.9569778329252" text-anchor="end">3.28 ms</text>
</g>
<g>
<title>3.28 ms ± 318 μs</title>
<rect y="28" rx="5" height="22" width="435.9569778329252" fill="hsl(0, 100%, 80%)" stroke="hsl(0, 100%, 55%)" />
<g stroke="hsl(0, 100%, 40%)"><line x1="393.70634984052543" x2="478.20760582532495" y1="39" y2="39" />
<line x1="393.70634984052543" x2="393.70634984052543" y1="33" y2="45" />
<line x1="478.20760582532495" x2="478.20760582532495" y1="33" y2="45" />
</g>
</g>
<g fill="hsl(90, 100%, 40%)">
<text y="77">generateModule.15.0</text>
<text y="77" x="436.8688377902418" text-anchor="end">3.29 ms</text>
</g>
<g>
<title>3.29 ms ± 194 μs</title>
<rect y="83" rx="5" height="22" width="436.8688377902418" fill="hsl(90, 100%, 80%)" stroke="hsl(90, 100%, 55%)" />
<g stroke="hsl(90, 100%, 40%)"><line x1="411.07851549402176" x2="462.65916008646184" y1="94" y2="94" />
<line x1="411.07851549402176" x2="411.07851549402176" y1="88" y2="100" />
<line x1="462.65916008646184" x2="462.65916008646184" y1="88" y2="100" />
</g>
</g>
<g fill="hsl(180, 100%, 40%)">
<text y="132">generateModule.15.1</text>
<text y="132" x="798.1359071672085" text-anchor="end">6.01 ms</text>
</g>
<g>
<title>6.01 ms ± 368 μs</title>
<rect y="138" rx="5" height="22" width="798.1359071672085" fill="hsl(180, 100%, 80%)" stroke="hsl(180, 100%, 55%)" />
<g stroke="hsl(180, 100%, 40%)"><line x1="749.1862216941487" x2="847.0855926402684" y1="149" y2="149" />
<line x1="749.1862216941487" x2="749.1862216941487" y1="143" y2="155" />
<line x1="847.0855926402684" x2="847.0855926402684" y1="143" y2="155" />
</g>
</g>
<g fill="hsl(270, 100%, 40%)">
<text y="187">generateModule.16.0</text>
<text y="187" x="890.6894197320613" text-anchor="end">6.70 ms</text>
</g>
<g>
<title>6.70 ms ± 371 μs</title>
<rect y="193" rx="5" height="22" width="890.6894197320613" fill="hsl(270, 100%, 80%)" stroke="hsl(270, 100%, 55%)" />
<g stroke="hsl(270, 100%, 40%)"><line x1="841.3788394641226" x2="940.0" y1="204" y2="204" />
<line x1="841.3788394641226" x2="841.3788394641226" y1="198" y2="210" />
<line x1="940.0" x2="940.0" y1="198" y2="210" />
</g>
</g>
</g>
</svg>
