<svg xmlns="http://www.w3.org/2000/svg" height="282" width="960.0" font-size="16" font-family="sans-serif" stroke-width="2">
<g transform="translate(10.0 0)">
<g fill="hsl(0, 100%, 40%)">
<text y="22">Sample.14.0</text>
<text y="22" x="879.7295793049472" text-anchor="end">14.9 ms</text>
</g>
<g>
<title>14.9 ms ± 963 μs</title>
<rect y="28" rx="5" height="22" width="879.7295793049472" fill="hsl(0, 100%, 80%)" stroke="hsl(0, 100%, 55%)" />
<g stroke="hsl(0, 100%, 40%)"><line x1="822.9587123861427" x2="936.5004462237516" y1="39" y2="39" />
<line x1="822.9587123861427" x2="822.9587123861427" y1="33" y2="45" />
<line x1="936.5004462237516" x2="936.5004462237516" y1="33" y2="45" />
</g>
</g>
<g fill="hsl(72, 100%, 40%)">
<text y="77">Sample.15.0</text>
<text y="77" x="871.7231306125511" text-anchor="end">14.8 ms</text>
</g>
<g>
<title>14.8 ms ± 819 μs</title>
<rect y="83" rx="5" height="22" width="871.7231306125511" fill="hsl(72, 100%, 80%)" stroke="hsl(72, 100%, 55%)" />
<g stroke="hsl(72, 100%, 40%)"><line x1="823.4225694746623" x2="920.02369175044" y1="94" y2="94" />
<line x1="823.4225694746623" x2="823.4225694746623" y1="88" y2="100" />
<line x1="920.02369175044" x2="920.02369175044" y1="88" y2="100" />
</g>
</g>
<g fill="hsl(144, 100%, 40%)">
<text y="132">Sample.15.1</text>
<text y="132" x="891.8251700447811" text-anchor="end">15.1 ms</text>
</g>
<g>
<title>15.1 ms ± 675 μs</title>
<rect y="138" rx="5" height="22" width="891.8251700447811" fill="hsl(144, 100%, 80%)" stroke="hsl(144, 100%, 55%)" />
<g stroke="hsl(144, 100%, 40%)"><line x1="852.0258890926525" x2="931.6244509969097" y1="149" y2="149" />
<line x1="852.0258890926525" x2="852.0258890926525" y1="143" y2="155" />
<line x1="931.6244509969097" x2="931.6244509969097" y1="143" y2="155" />
</g>
</g>
<g fill="hsl(216, 100%, 40%)">
<text y="187">Sample.16.0</text>
<text y="187" x="885.3282840013968" text-anchor="end">15.0 ms</text>
</g>
<g>
<title>15.0 ms ± 724 μs</title>
<rect y="193" rx="5" height="22" width="885.3282840013968" fill="hsl(216, 100%, 80%)" stroke="hsl(216, 100%, 55%)" />
<g stroke="hsl(216, 100%, 40%)"><line x1="842.6611314558799" x2="927.9954365469138" y1="204" y2="204" />
<line x1="842.6611314558799" x2="842.6611314558799" y1="198" y2="210" />
<line x1="927.9954365469138" x2="927.9954365469138" y1="198" y2="210" />
</g>
</g>
<g fill="hsl(288, 100%, 40%)">
<text y="242">Sample.17.0</text>
<text y="242" x="898.0167913194254" text-anchor="end">15.2 ms</text>
</g>
<g>
<title>15.2 ms ± 712 μs</title>
<rect y="248" rx="5" height="22" width="898.0167913194254" fill="hsl(288, 100%, 80%)" stroke="hsl(288, 100%, 55%)" />
<g stroke="hsl(288, 100%, 40%)"><line x1="856.0335826388507" x2="940.0" y1="259" y2="259" />
<line x1="856.0335826388507" x2="856.0335826388507" y1="253" y2="265" />
<line x1="940.0" x2="940.0" y1="253" y2="265" />
</g>
</g>
</g>
</svg>
