<svg xmlns="http://www.w3.org/2000/svg" height="227" width="960.0" font-size="16" font-family="sans-serif" stroke-width="2">
<g transform="translate(10.0 0)">
<g fill="hsl(0, 100%, 40%)">
<text y="22">generateModule.14.0</text>
<text y="22" x="480.5109066284324" text-anchor="end">3.45 ms</text>
</g>
<g>
<title>3.45 ms ± 341 μs</title>
<rect y="28" rx="5" height="22" width="480.5109066284324" fill="hsl(0, 100%, 80%)" stroke="hsl(0, 100%, 55%)" />
<g stroke="hsl(0, 100%, 40%)"><line x1="433.0608525835617" x2="527.960960673303" y1="39" y2="39" />
<line x1="433.0608525835617" x2="433.0608525835617" y1="33" y2="45" />
<line x1="527.960960673303" x2="527.960960673303" y1="33" y2="45" />
</g>
</g>
<g fill="hsl(90, 100%, 40%)">
<text y="77">generateModule.15.0</text>
<text y="77" x="492.87089350398975" text-anchor="end">3.54 ms</text>
</g>
<g>
<title>3.54 ms ± 317 μs</title>
<rect y="83" rx="5" height="22" width="492.87089350398975" fill="hsl(90, 100%, 80%)" stroke="hsl(90, 100%, 55%)" />
<g stroke="hsl(90, 100%, 40%)"><line x1="448.7189328025979" x2="537.0228542053816" y1="94" y2="94" />
<line x1="448.7189328025979" x2="448.7189328025979" y1="88" y2="100" />
<line x1="537.0228542053816" x2="537.0228542053816" y1="88" y2="100" />
</g>
</g>
<g fill="hsl(180, 100%, 40%)">
<text y="132">generateModule.15.1</text>
<text y="132" x="865.1653118890108" text-anchor="end">6.21 ms</text>
</g>
<g>
<title>6.21 ms ± 392 μs</title>
<rect y="138" rx="5" height="22" width="865.1653118890108" fill="hsl(180, 100%, 80%)" stroke="hsl(180, 100%, 55%)" />
<g stroke="hsl(180, 100%, 40%)"><line x1="810.5739832521901" x2="919.7566405258315" y1="149" y2="149" />
<line x1="810.5739832521901" x2="810.5739832521901" y1="143" y2="155" />
<line x1="919.7566405258315" x2="919.7566405258315" y1="143" y2="155" />
</g>
</g>
<g fill="hsl(270, 100%, 40%)">
<text y="187">generateModule.16.0</text>
<text y="187" x="897.6466088934274" text-anchor="end">6.45 ms</text>
</g>
<g>
<title>6.45 ms ± 304 μs</title>
<rect y="193" rx="5" height="22" width="897.6466088934274" fill="hsl(270, 100%, 80%)" stroke="hsl(270, 100%, 55%)" />
<g stroke="hsl(270, 100%, 40%)"><line x1="855.2932177868547" x2="940.0" y1="204" y2="204" />
<line x1="855.2932177868547" x2="855.2932177868547" y1="198" y2="210" />
<line x1="940.0" x2="940.0" y1="198" y2="210" />
</g>
</g>
</g>
</svg>
