<svg xmlns="http://www.w3.org/2000/svg" height="172" width="960.0" font-size="16" font-family="sans-serif" stroke-width="2">
<g transform="translate(10.0 0)">
<g fill="hsl(0, 100%, 40%)">
<text y="22">Sample.15.0</text>
<text y="22" x="853.4407928808353" text-anchor="end">13.4 ms</text>
</g>
<g>
<title>13.4 ms ± 701 μs</title>
<rect y="28" rx="5" height="22" width="853.4407928808353" fill="hsl(0, 100%, 80%)" stroke="hsl(0, 100%, 55%)" />
<g stroke="hsl(0, 100%, 40%)"><line x1="808.7827200050262" x2="898.0988657566443" y1="39" y2="39" />
<line x1="808.7827200050262" x2="808.7827200050262" y1="33" y2="45" />
<line x1="898.0988657566443" x2="898.0988657566443" y1="33" y2="45" />
</g>
</g>
<g fill="hsl(120, 100%, 40%)">
<text y="77">Sample.15.1</text>
<text y="77" x="888.5216029731728" text-anchor="end">13.9 ms</text>
</g>
<g>
<title>13.9 ms ± 808 μs</title>
<rect y="83" rx="5" height="22" width="888.5216029731728" fill="hsl(120, 100%, 80%)" stroke="hsl(120, 100%, 55%)" />
<g stroke="hsl(120, 100%, 40%)"><line x1="837.0432059463456" x2="940.0" y1="94" y2="94" />
<line x1="837.0432059463456" x2="837.0432059463456" y1="88" y2="100" />
<line x1="940.0" x2="940.0" y1="88" y2="100" />
</g>
</g>
<g fill="hsl(240, 100%, 40%)">
<text y="132">Sample.16.0</text>
<text y="132" x="874.2923806220853" text-anchor="end">13.7 ms</text>
</g>
<g>
<title>13.7 ms ± 895 μs</title>
<rect y="138" rx="5" height="22" width="874.2923806220853" fill="hsl(240, 100%, 80%)" stroke="hsl(240, 100%, 55%)" />
<g stroke="hsl(240, 100%, 40%)"><line x1="817.2595604310626" x2="931.3252008131079" y1="149" y2="149" />
<line x1="817.2595604310626" x2="817.2595604310626" y1="143" y2="155" />
<line x1="931.3252008131079" x2="931.3252008131079" y1="143" y2="155" />
</g>
</g>
</g>
</svg>
