<svg xmlns="http://www.w3.org/2000/svg" height="172" width="960.0" font-size="16" font-family="sans-serif" stroke-width="2">
<g transform="translate(10.0 0)">
<g fill="hsl(0, 100%, 40%)">
<text y="22">Sample.15.0</text>
<text y="22" x="876.7635218083745" text-anchor="end">13.2 ms</text>
</g>
<g>
<title>13.2 ms ± 952 μs</title>
<rect y="28" rx="5" height="22" width="876.7635218083745" fill="hsl(0, 100%, 80%)" stroke="hsl(0, 100%, 55%)" />
<g stroke="hsl(0, 100%, 40%)"><line x1="813.5270436167491" x2="940.0" y1="39" y2="39" />
<line x1="813.5270436167491" x2="813.5270436167491" y1="33" y2="45" />
<line x1="940.0" x2="940.0" y1="33" y2="45" />
</g>
</g>
<g fill="hsl(120, 100%, 40%)">
<text y="77">Sample.15.1</text>
<text y="77" x="881.9199460426046" text-anchor="end">13.3 ms</text>
</g>
<g>
<title>13.3 ms ± 383 μs</title>
<rect y="83" rx="5" height="22" width="881.9199460426046" fill="hsl(120, 100%, 80%)" stroke="hsl(120, 100%, 55%)" />
<g stroke="hsl(120, 100%, 40%)"><line x1="856.4622013185726" x2="907.3776907666365" y1="94" y2="94" />
<line x1="856.4622013185726" x2="856.4622013185726" y1="88" y2="100" />
<line x1="907.3776907666365" x2="907.3776907666365" y1="88" y2="100" />
</g>
</g>
<g fill="hsl(240, 100%, 40%)">
<text y="132">Sample.16.0</text>
<text y="132" x="819.5537847478073" text-anchor="end">12.3 ms</text>
</g>
<g>
<title>12.3 ms ± 781 μs</title>
<rect y="138" rx="5" height="22" width="819.5537847478073" fill="hsl(240, 100%, 80%)" stroke="hsl(240, 100%, 55%)" />
<g stroke="hsl(240, 100%, 40%)"><line x1="767.6809066172973" x2="871.4266628783173" y1="149" y2="149" />
<line x1="767.6809066172973" x2="767.6809066172973" y1="143" y2="155" />
<line x1="871.4266628783173" x2="871.4266628783173" y1="143" y2="155" />
</g>
</g>
</g>
</svg>
